<svg width="32" height="32" viewBox="0 0 32 32" fill="none" xmlns="http://www.w3.org/2000/svg">
<path d="M16 0C24.8366 0 32 7.16344 32 16C32 24.8366 24.8366 32 16 32C12.6417 32 9.52577 30.9642 6.95215 29.1963C6.95642 29.1634 6.96201 29.1298 6.96191 29.0957C6.96013 28.1963 7.34833 27.1627 8.40234 26.3809C8.47714 26.3254 8.55834 26.2732 8.64453 26.2217C8.86999 26.1438 9.20489 26.0773 9.64844 26.0381C10.1602 25.9929 10.7661 25.9822 11.417 25.9912C12.0661 26.0003 12.7494 26.0286 13.4189 26.0576C14.0845 26.0865 14.7435 26.1173 15.3252 26.1289C17.6267 26.1747 23.0768 26.2446 26.0898 20.2461C27.5288 17.3804 27.8109 14.7884 27.3555 12.5596C26.9015 10.3409 25.7293 8.54119 24.3604 7.22363C23.2269 6.13345 22.0293 5.86868 20.9951 6.1582C19.2388 4.87564 17.7084 4.26328 16.4189 4.03027C15.0533 3.78375 13.999 3.9646 13.2949 4.16113C12.5001 4.38339 11.7925 4.92851 11.2529 5.43066C10.7091 5.93692 10.2488 6.48682 10.0068 6.75488C10.0063 6.75543 9.99361 6.76961 9.94727 6.79492C9.89759 6.82196 9.81787 6.85708 9.69336 6.90527C9.47517 6.98969 9.11772 7.11235 8.74121 7.29199C7.94336 7.67279 6.99972 8.33282 6.03613 9.73145C5.15353 11.013 5.21504 12.3815 5.60645 13.4951C5.9564 14.4893 6.5823 15.3267 7.10156 15.8545C7.60236 17.4593 9.06608 18.4775 10.0693 18.8838C11.1019 19.3013 12.0912 19.1344 12.8838 18.7754C13.6656 18.4209 14.2966 17.8652 14.6865 17.4072C14.9219 17.1305 15.0706 16.8351 15.1787 16.5801C15.2305 16.4578 15.2766 16.3357 15.3154 16.2324L15.3184 16.2236C15.3602 16.1124 15.3948 16.0205 15.4307 15.9365C15.502 15.7696 15.5604 15.6797 15.6172 15.6221C15.6636 15.5752 15.7404 15.5184 15.9053 15.4805C15.979 15.4636 16.0498 15.433 16.1133 15.3945C16.831 14.9595 17.332 14.4279 17.6064 13.8096C17.8822 13.1871 17.8975 12.5463 17.7637 11.958C17.504 10.8208 16.6799 9.81033 15.9434 9.1543C15.2179 8.50923 14.3399 8.33791 13.6172 8.3623C12.9145 8.38646 12.2427 8.59876 11.8613 8.8623C11.7283 8.95391 11.0069 9.38175 10.4473 9.99414C9.88143 10.6137 9.29855 11.6299 9.79688 12.8496C10.0703 13.5174 10.4817 13.9908 10.9971 14.2363C11.5077 14.4789 12.0372 14.4573 12.4736 14.3135C12.8498 14.189 13.0552 13.7737 12.9355 13.3867C12.8149 13.0001 12.4134 12.7851 12.0371 12.9092C11.876 12.9621 11.7235 12.9567 11.5947 12.8955C11.4711 12.836 11.2819 12.6817 11.1152 12.2744C10.9437 11.853 11.0795 11.4515 11.4873 11.0049C11.9032 10.5498 12.4166 10.2548 12.6582 10.0879C12.7635 10.0152 13.1553 9.85542 13.6641 9.83789C14.1512 9.82147 14.6362 9.94039 15.0088 10.2715C15.6452 10.8384 16.2109 11.5944 16.3711 12.2939C16.4461 12.6231 16.428 12.9221 16.3066 13.1963C16.1887 13.4621 15.9425 13.7685 15.4561 14.0771C15.1176 14.1765 14.8388 14.3429 14.6143 14.5703C14.3698 14.8182 14.2243 15.1042 14.1221 15.3438C14.0713 15.4628 14.0243 15.5852 13.9844 15.6914C13.943 15.8015 13.9072 15.897 13.8682 15.9893C13.7906 16.1722 13.7108 16.3153 13.6104 16.4336C13.3272 16.766 12.8604 17.1766 12.3086 17.4268C11.7672 17.672 11.1819 17.7491 10.5918 17.5107C10.1775 17.3428 9.69639 17.0524 9.28906 16.666C8.88178 16.2794 8.55652 15.8043 8.42383 15.2734C8.38873 15.1349 8.31445 15.0087 8.21289 14.9131C7.79506 14.5203 7.238 13.8078 6.95117 12.9932C6.67294 12.2018 6.66162 11.3708 7.20117 10.5869C8.01548 9.40477 8.7614 8.90652 9.34082 8.62988C9.65293 8.48096 9.9085 8.39845 10.1963 8.28711C10.4421 8.19198 10.7935 8.0489 11.0537 7.76074C11.3439 7.43929 11.729 6.97492 12.2119 6.52539C12.6997 6.07146 13.2026 5.71533 13.668 5.58496C14.2248 5.42949 15.0621 5.28311 16.1719 5.4834C17.1003 5.65117 18.2488 6.07085 19.6094 6.97168C19.3715 7.20707 19.172 7.47254 19.0186 7.75C18.6975 8.3313 18.5188 9.08039 18.7627 9.75781C19.1467 10.8208 19.9708 11.5267 20.9434 11.5957C21.6505 11.6451 22.3236 11.3464 22.8477 10.7773C23.3478 10.1549 23.6297 9.56349 23.1465 9.05273C22.9779 8.93701 22.768 8.89994 22.5723 8.95117C22.3763 9.003 22.2092 9.13833 22.1152 9.32227C21.7824 9.97592 21.3471 10.1461 21.041 10.125C20.7264 10.1025 20.328 9.86418 20.1035 9.24316C20.0597 9.11947 20.062 8.83949 20.2607 8.47949C20.4511 8.13572 20.7698 7.82117 21.1543 7.65234C21.426 7.53331 21.7531 7.47692 22.1211 7.55566C22.4901 7.63501 22.9179 7.85367 23.3848 8.30273C24.5819 9.455 25.573 10.9977 25.9551 12.8652C26.3347 14.7233 26.1239 16.9697 24.8184 19.5693C22.2286 24.7241 17.6305 24.6987 15.3506 24.6533C15.1839 24.65 15.01 24.6398 14.8311 24.6338C16.5044 24.1241 18.178 23.2468 19.3623 21.3877C21.1411 18.5942 20.4028 15.6457 19.4355 13.8574C19.2424 13.5033 18.8059 13.3775 18.4619 13.5752C18.1182 13.7739 17.9968 14.2243 18.1875 14.5791C19.0126 16.1056 19.5388 18.4199 18.166 20.5762C16.9785 22.4406 15.1595 23.1187 13.168 23.5439C12.6715 23.6499 12.1737 23.7395 11.6748 23.8291L11.6348 23.8359C11.1537 23.9224 10.6684 24.0098 10.2051 24.1143C9.46455 24.2813 8.7287 24.5036 8.08203 24.8594C8.0504 24.8717 8.01164 24.887 7.97461 24.9033C7.89282 24.9396 7.82195 24.9918 7.76172 25.0518C7.70055 25.0917 7.63346 25.1363 7.56836 25.1846C6.44978 26.0142 5.83887 27.0969 5.62305 28.1777C2.18239 25.243 0 20.8767 0 16C0 7.16344 7.16344 0 16 0Z" fill="#214DA4"/>
</svg>
