<svg width="16" height="16" viewBox="0 0 16 16" fill="none" xmlns="http://www.w3.org/2000/svg">
<path d="M12.7625 3.24374C11.7469 2.23124 10.6656 2.88749 9.9875 3.56249L3.5875 9.96249C2.90937 10.6406 2.2 11.6719 3.26875 12.7375C4.33437 13.8031 5.3625 13.0937 6.04062 12.4156L12.4406 6.01562C13.1187 5.34062 13.775 4.25624 12.7625 3.24374ZM6.64687 2.98124L8.00312 4.33749L9.38125 2.95624C9.475 2.86249 9.56875 2.77499 9.66562 2.69374C9.52187 1.96562 9.10625 1.30624 8 1.30624C6.89375 1.30624 6.47812 1.96874 6.3375 2.69687C6.44062 2.78749 6.54375 2.87812 6.64687 2.98124ZM9.38125 13.0469L8.00312 11.6687L6.64687 13.0219C6.54375 13.125 6.44375 13.2219 6.34062 13.3094C6.49687 14.0531 6.93437 14.7312 8 14.7312C9.06875 14.7312 9.50937 14.0469 9.6625 13.3031C9.56875 13.2219 9.475 13.1406 9.38125 13.0469ZM6.07187 6.26562H3.45937C2.5 6.26562 1.27187 6.56874 1.27187 7.99999C1.27187 9.07187 1.95625 9.50937 2.70312 9.66249C2.79062 9.56249 6.07187 6.26562 6.07187 6.26562ZM13.3062 6.33749C13.225 6.43124 9.93437 9.73749 9.93437 9.73749H12.5094C13.4687 9.73749 14.6969 9.50937 14.6969 7.99999C14.6969 6.89687 14.0375 6.48124 13.3062 6.33749ZM6.92812 5.40937L7.39375 4.94374L6.04062 3.58749C5.3625 2.90937 4.33437 2.19999 3.26562 3.26874C2.48437 4.04999 2.65937 4.81249 3.07187 5.42812C3.2 5.41874 6.92812 5.40937 6.92812 5.40937ZM9.075 10.5937L8.60625 11.0625L9.9875 12.4406C10.6656 13.1187 11.7469 13.775 12.7594 12.7625C13.5156 12.0062 13.3437 11.2094 12.925 10.575C12.7906 10.5844 9.075 10.5937 9.075 10.5937Z" fill="black"/>
</svg>
