<svg width="239" height="28" viewBox="0 0 239 28" fill="none" xmlns="http://www.w3.org/2000/svg">
<mask id="path-1-outside-1_77_921" maskUnits="userSpaceOnUse" x="0" y="0" width="239" height="28" fill="black">
<rect fill="white" width="239" height="28"/>
<path d="M8.624 21.392C7.28 21.392 6.05733 21.0933 4.956 20.496C3.87333 19.88 3.00533 18.9933 2.352 17.836C1.71733 16.66 1.4 15.232 1.4 13.552V8.848C1.4 6.328 2.10933 4.396 3.528 3.052C4.94667 1.68933 6.86933 1.008 9.296 1.008C11.704 1.008 13.5613 1.652 14.868 2.94C16.1933 4.20933 16.856 5.936 16.856 8.12V8.232H13.216V8.008C13.216 7.31733 13.0667 6.692 12.768 6.132C12.488 5.572 12.0587 5.13333 11.48 4.816C10.9013 4.48 10.1733 4.312 9.296 4.312C7.98933 4.312 6.96267 4.71333 6.216 5.516C5.46933 6.31867 5.096 7.41067 5.096 8.792V13.608C5.096 14.9707 5.46933 16.072 6.216 16.912C6.96267 17.7333 8.008 18.144 9.352 18.144C10.696 18.144 11.676 17.7893 12.292 17.08C12.908 16.3707 13.216 15.4747 13.216 14.392V14.112H8.568V10.976H16.856V21H13.44V19.124H12.936C12.8053 19.4413 12.5907 19.7773 12.292 20.132C12.012 20.4867 11.5827 20.7853 11.004 21.028C10.4253 21.2707 9.632 21.392 8.624 21.392ZM25.7911 21.224C24.7084 21.224 23.7564 20.9813 22.9351 20.496C22.1324 19.992 21.5071 19.3013 21.0591 18.424C20.6111 17.5467 20.3871 16.5387 20.3871 15.4V7.112H23.9151V15.12C23.9151 16.1653 24.1671 16.9493 24.6711 17.472C25.1937 17.9947 25.9311 18.256 26.8831 18.256C27.9657 18.256 28.8057 17.9013 29.4031 17.192C30.0004 16.464 30.2991 15.456 30.2991 14.168V7.112H33.8271V21H30.3551V19.18H29.8511C29.6271 19.6467 29.2071 20.104 28.5911 20.552C27.9751 21 27.0417 21.224 25.7911 21.224ZM37.753 21V7.112H41.281V21H37.753ZM39.517 5.488C38.8823 5.488 38.341 5.28267 37.893 4.872C37.4636 4.46133 37.249 3.92 37.249 3.248C37.249 2.576 37.4636 2.03467 37.893 1.624C38.341 1.21333 38.8823 1.008 39.517 1.008C40.1703 1.008 40.7116 1.21333 41.141 1.624C41.5703 2.03467 41.785 2.576 41.785 3.248C41.785 3.92 41.5703 4.46133 41.141 4.872C40.7116 5.28267 40.1703 5.488 39.517 5.488ZM45.1905 21V1.4H48.7185V21H45.1905ZM52.628 21V1.4H56.156V21H52.628ZM64.3775 21.392C63.3881 21.392 62.5015 21.224 61.7175 20.888C60.9335 20.5333 60.3081 20.0293 59.8415 19.376C59.3935 18.704 59.1695 17.892 59.1695 16.94C59.1695 15.988 59.3935 15.1947 59.8415 14.56C60.3081 13.9067 60.9428 13.4213 61.7455 13.104C62.5668 12.768 63.5001 12.6 64.5455 12.6H68.3535V11.816C68.3535 11.1627 68.1481 10.6307 67.7375 10.22C67.3268 9.79067 66.6735 9.576 65.7775 9.576C64.9001 9.576 64.2468 9.78133 63.8175 10.192C63.3881 10.584 63.1081 11.0973 62.9775 11.732L59.7295 10.64C59.9535 9.93067 60.3081 9.28667 60.7935 8.708C61.2975 8.11067 61.9601 7.63467 62.7815 7.28C63.6215 6.90667 64.6388 6.72 65.8335 6.72C67.6628 6.72 69.1095 7.17733 70.1735 8.092C71.2375 9.00667 71.7695 10.332 71.7695 12.068V17.248C71.7695 17.808 72.0308 18.088 72.5535 18.088H73.6735V21H71.3215C70.6308 21 70.0615 20.832 69.6135 20.496C69.1655 20.16 68.9415 19.712 68.9415 19.152V19.124H68.4095C68.3348 19.348 68.1668 19.6467 67.9055 20.02C67.6441 20.3747 67.2335 20.692 66.6735 20.972C66.1135 21.252 65.3481 21.392 64.3775 21.392ZM64.9935 18.536C65.9828 18.536 66.7855 18.2653 67.4015 17.724C68.0361 17.164 68.3535 16.4267 68.3535 15.512V15.232H64.7975C64.1441 15.232 63.6308 15.372 63.2575 15.652C62.8841 15.932 62.6975 16.324 62.6975 16.828C62.6975 17.332 62.8935 17.7427 63.2855 18.06C63.6775 18.3773 64.2468 18.536 64.9935 18.536ZM81.1622 21.224C80.0795 21.224 79.1275 20.9813 78.3062 20.496C77.5035 19.992 76.8782 19.3013 76.4302 18.424C75.9822 17.5467 75.7582 16.5387 75.7582 15.4V7.112H79.2862V15.12C79.2862 16.1653 79.5382 16.9493 80.0422 17.472C80.5648 17.9947 81.3022 18.256 82.2542 18.256C83.3368 18.256 84.1768 17.9013 84.7742 17.192C85.3715 16.464 85.6702 15.456 85.6702 14.168V7.112H89.1982V21H85.7262V19.18H85.2222C84.9982 19.6467 84.5782 20.104 83.9622 20.552C83.3462 21 82.4128 21.224 81.1622 21.224ZM93.1241 21V7.112H96.5961V8.624H97.1001C97.3427 8.15733 97.7441 7.756 98.3041 7.42C98.8641 7.06533 99.6014 6.888 100.516 6.888C101.505 6.888 102.299 7.084 102.896 7.476C103.493 7.84933 103.951 8.344 104.268 8.96H104.772C105.089 8.36267 105.537 7.868 106.116 7.476C106.695 7.084 107.516 6.888 108.58 6.888C109.439 6.888 110.213 7.07467 110.904 7.448C111.613 7.80267 112.173 8.35333 112.584 9.1C113.013 9.828 113.228 10.752 113.228 11.872V21H109.7V12.124C109.7 11.3587 109.504 10.7893 109.112 10.416C108.72 10.024 108.169 9.828 107.46 9.828C106.657 9.828 106.032 10.0893 105.584 10.612C105.155 11.116 104.94 11.844 104.94 12.796V21H101.412V12.124C101.412 11.3587 101.216 10.7893 100.824 10.416C100.432 10.024 99.8814 9.828 99.1721 9.828C98.3694 9.828 97.7441 10.0893 97.2961 10.612C96.8667 11.116 96.6521 11.844 96.6521 12.796V21H93.1241ZM123.351 21.392C121.969 21.392 120.747 21.1027 119.683 20.524C118.637 19.9267 117.816 19.096 117.219 18.032C116.64 16.9493 116.351 15.68 116.351 14.224V13.888C116.351 12.432 116.64 11.172 117.219 10.108C117.797 9.02533 118.609 8.19467 119.655 7.616C120.7 7.01867 121.913 6.72 123.294 6.72C124.657 6.72 125.843 7.028 126.851 7.644C127.859 8.24133 128.643 9.08133 129.202 10.164C129.763 11.228 130.043 12.4693 130.043 13.888V15.092H119.935C119.972 16.044 120.327 16.8187 120.999 17.416C121.671 18.0133 122.492 18.312 123.463 18.312C124.452 18.312 125.18 18.0973 125.647 17.668C126.113 17.2387 126.468 16.7627 126.711 16.24L129.595 17.752C129.333 18.2373 128.951 18.7693 128.447 19.348C127.961 19.908 127.308 20.3933 126.487 20.804C125.665 21.196 124.62 21.392 123.351 21.392ZM119.963 12.46H126.459C126.384 11.6573 126.057 11.0133 125.479 10.528C124.919 10.0427 124.181 9.8 123.267 9.8C122.315 9.8 121.559 10.0427 120.999 10.528C120.439 11.0133 120.093 11.6573 119.963 12.46ZM147.628 21.392C145.201 21.392 143.279 20.72 141.86 19.376C140.441 18.0133 139.732 16.072 139.732 13.552V8.848C139.732 6.328 140.441 4.396 141.86 3.052C143.279 1.68933 145.201 1.008 147.628 1.008C150.036 1.008 151.893 1.67067 153.2 2.996C154.525 4.30267 155.188 6.104 155.188 8.4V8.568H151.548V8.288C151.548 7.13067 151.221 6.17867 150.568 5.432C149.933 4.68533 148.953 4.312 147.628 4.312C146.321 4.312 145.295 4.71333 144.548 5.516C143.801 6.31867 143.428 7.41067 143.428 8.792V13.608C143.428 14.9707 143.801 16.0627 144.548 16.884C145.295 17.6867 146.321 18.088 147.628 18.088C148.953 18.088 149.933 17.7147 150.568 16.968C151.221 16.2027 151.548 15.2507 151.548 14.112V13.608H155.188V14C155.188 16.296 154.525 18.1067 153.2 19.432C151.893 20.7387 150.036 21.392 147.628 21.392ZM158.312 21V7.112H161.784V8.68H162.288C162.493 8.12 162.829 7.70933 163.296 7.448C163.781 7.18667 164.341 7.056 164.976 7.056H166.656V10.192H164.92C164.024 10.192 163.286 10.4347 162.708 10.92C162.129 11.3867 161.84 12.1147 161.84 13.104V21H158.312ZM175.249 21.392C173.868 21.392 172.645 21.1027 171.581 20.524C170.536 19.9267 169.714 19.096 169.117 18.032C168.538 16.9493 168.249 15.68 168.249 14.224V13.888C168.249 12.432 168.538 11.172 169.117 10.108C169.696 9.02533 170.508 8.19467 171.553 7.616C172.598 7.01867 173.812 6.72 175.193 6.72C176.556 6.72 177.741 7.028 178.749 7.644C179.757 8.24133 180.541 9.08133 181.101 10.164C181.661 11.228 181.941 12.4693 181.941 13.888V15.092H171.833C171.87 16.044 172.225 16.8187 172.897 17.416C173.569 18.0133 174.39 18.312 175.361 18.312C176.35 18.312 177.078 18.0973 177.545 17.668C178.012 17.2387 178.366 16.7627 178.609 16.24L181.493 17.752C181.232 18.2373 180.849 18.7693 180.345 19.348C179.86 19.908 179.206 20.3933 178.385 20.804C177.564 21.196 176.518 21.392 175.249 21.392ZM171.861 12.46H178.357C178.282 11.6573 177.956 11.0133 177.377 10.528C176.817 10.0427 176.08 9.8 175.165 9.8C174.213 9.8 173.457 10.0427 172.897 10.528C172.337 11.0133 171.992 11.6573 171.861 12.46ZM190.849 21.392C189.038 21.392 187.554 21 186.397 20.216C185.24 19.432 184.54 18.312 184.297 16.856L187.545 16.016C187.676 16.6693 187.89 17.1827 188.189 17.556C188.506 17.9293 188.889 18.2 189.337 18.368C189.804 18.5173 190.308 18.592 190.849 18.592C191.67 18.592 192.277 18.452 192.669 18.172C193.061 17.8733 193.257 17.5093 193.257 17.08C193.257 16.6507 193.07 16.324 192.697 16.1C192.324 15.8573 191.726 15.6613 190.905 15.512L190.121 15.372C189.15 15.1853 188.264 14.9333 187.461 14.616C186.658 14.28 186.014 13.8227 185.529 13.244C185.044 12.6653 184.801 11.9187 184.801 11.004C184.801 9.62267 185.305 8.568 186.313 7.84C187.321 7.09333 188.646 6.72 190.289 6.72C191.838 6.72 193.126 7.06533 194.153 7.756C195.18 8.44667 195.852 9.352 196.169 10.472L192.893 11.48C192.744 10.7707 192.436 10.2667 191.969 9.968C191.521 9.66933 190.961 9.52 190.289 9.52C189.617 9.52 189.104 9.64133 188.749 9.884C188.394 10.108 188.217 10.4253 188.217 10.836C188.217 11.284 188.404 11.62 188.777 11.844C189.15 12.0493 189.654 12.208 190.289 12.32L191.073 12.46C192.118 12.6467 193.061 12.8987 193.901 13.216C194.76 13.5147 195.432 13.9533 195.917 14.532C196.421 15.092 196.673 15.8573 196.673 16.828C196.673 18.284 196.141 19.4133 195.077 20.216C194.032 21 192.622 21.392 190.849 21.392ZM199.765 26.6V7.112H203.237V8.792H203.741C204.058 8.25067 204.553 7.77467 205.225 7.364C205.897 6.93467 206.858 6.72 208.109 6.72C209.229 6.72 210.265 7 211.217 7.56C212.169 8.10133 212.934 8.904 213.513 9.968C214.091 11.032 214.381 12.32 214.381 13.832V14.28C214.381 15.792 214.091 17.08 213.513 18.144C212.934 19.208 212.169 20.02 211.217 20.58C210.265 21.1213 209.229 21.392 208.109 21.392C207.269 21.392 206.559 21.2893 205.981 21.084C205.421 20.8973 204.963 20.6547 204.609 20.356C204.273 20.0387 204.002 19.7213 203.797 19.404H203.293V26.6H199.765ZM207.045 18.312C208.146 18.312 209.051 17.9667 209.761 17.276C210.489 16.5667 210.853 15.54 210.853 14.196V13.916C210.853 12.572 210.489 11.5547 209.761 10.864C209.033 10.1547 208.127 9.8 207.045 9.8C205.962 9.8 205.057 10.1547 204.329 10.864C203.601 11.5547 203.237 12.572 203.237 13.916V14.196C203.237 15.54 203.601 16.5667 204.329 17.276C205.057 17.9667 205.962 18.312 207.045 18.312ZM223.948 21.392C222.567 21.392 221.344 21.1027 220.28 20.524C219.235 19.9267 218.413 19.096 217.816 18.032C217.237 16.9493 216.948 15.68 216.948 14.224V13.888C216.948 12.432 217.237 11.172 217.816 10.108C218.395 9.02533 219.207 8.19467 220.252 7.616C221.297 7.01867 222.511 6.72 223.892 6.72C225.255 6.72 226.44 7.028 227.448 7.644C228.456 8.24133 229.24 9.08133 229.8 10.164C230.36 11.228 230.64 12.4693 230.64 13.888V15.092H220.532C220.569 16.044 220.924 16.8187 221.596 17.416C222.268 18.0133 223.089 18.312 224.06 18.312C225.049 18.312 225.777 18.0973 226.244 17.668C226.711 17.2387 227.065 16.7627 227.308 16.24L230.192 17.752C229.931 18.2373 229.548 18.7693 229.044 19.348C228.559 19.908 227.905 20.3933 227.084 20.804C226.263 21.196 225.217 21.392 223.948 21.392ZM220.56 12.46H227.056C226.981 11.6573 226.655 11.0133 226.076 10.528C225.516 10.0427 224.779 9.8 223.864 9.8C222.912 9.8 222.156 10.0427 221.596 10.528C221.036 11.0133 220.691 11.6573 220.56 12.46ZM233.78 21V1.4H237.308V21H233.78Z"/>
</mask>
<path d="M4.956 20.496L4.46148 21.3652L4.47031 21.3702L4.47924 21.375L4.956 20.496ZM2.352 17.836L1.47198 18.3109L1.4765 18.3193L1.48118 18.3276L2.352 17.836ZM3.528 3.052L4.21576 3.77797L4.22073 3.7732L3.528 3.052ZM14.868 2.94L14.166 3.65217L14.1711 3.65722L14.1763 3.6622L14.868 2.94ZM16.856 8.232V9.232H17.856V8.232H16.856ZM13.216 8.232H12.216V9.232H13.216V8.232ZM12.768 6.132L11.8736 6.57921L11.8795 6.59098L11.8856 6.60259L12.768 6.132ZM11.48 4.816L10.9779 5.68079L10.9884 5.68693L10.9992 5.69281L11.48 4.816ZM6.216 5.516L5.48381 4.83489L6.216 5.516ZM6.216 16.912L5.46854 17.5764L5.47606 17.5847L6.216 16.912ZM12.292 17.08L11.537 16.4243L11.537 16.4243L12.292 17.08ZM13.216 14.112H14.216V13.112H13.216V14.112ZM8.568 14.112H7.568V15.112H8.568V14.112ZM8.568 10.976V9.976H7.568V10.976H8.568ZM16.856 10.976H17.856V9.976H16.856V10.976ZM16.856 21V22H17.856V21H16.856ZM13.44 21H12.44V22H13.44V21ZM13.44 19.124H14.44V18.124H13.44V19.124ZM12.936 19.124V18.124H12.2663L12.0113 18.7433L12.936 19.124ZM12.292 20.132L11.5271 19.4879L11.5169 19.5L11.5071 19.5124L12.292 20.132ZM11.004 21.028L10.6173 20.1058L10.6173 20.1058L11.004 21.028ZM8.624 21.392V20.392C7.43406 20.392 6.37715 20.1292 5.43276 19.617L4.956 20.496L4.47924 21.375C5.73752 22.0575 7.12595 22.392 8.624 22.392V21.392ZM4.956 20.496L5.45052 19.6268C4.53574 19.1064 3.79339 18.3551 3.22282 17.3444L2.352 17.836L1.48118 18.3276C2.21728 19.6316 3.21093 20.6536 4.46148 21.3652L4.956 20.496ZM2.352 17.836L3.23202 17.3611C2.69382 16.3638 2.4 15.108 2.4 13.552H1.4H0.4C0.4 15.356 0.740842 16.9562 1.47198 18.3109L2.352 17.836ZM1.4 13.552H2.4V8.848H1.4H0.4V13.552H1.4ZM1.4 8.848H2.4C2.4 6.51878 3.05003 4.88231 4.21574 3.77795L3.528 3.052L2.84026 2.32605C1.16864 3.90969 0.4 6.13722 0.4 8.848H1.4ZM3.528 3.052L4.22073 3.7732C5.41183 2.62911 7.06397 2.008 9.296 2.008V1.008V0.0079987C6.6747 0.0079987 4.4815 0.749552 2.83527 2.3308L3.528 3.052ZM9.296 1.008V2.008C11.5264 2.008 13.0994 2.60078 14.166 3.65217L14.868 2.94L15.57 2.22782C14.0233 0.703213 11.8816 0.0079987 9.296 0.0079987V1.008ZM14.868 2.94L14.1763 3.6622C15.2676 4.70739 15.856 6.15269 15.856 8.12H16.856H17.856C17.856 5.71931 17.1191 3.71128 15.5597 2.2178L14.868 2.94ZM16.856 8.12H15.856V8.232H16.856H17.856V8.12H16.856ZM16.856 8.232V7.232H13.216V8.232V9.232H16.856V8.232ZM13.216 8.232H14.216V8.008H13.216H12.216V8.232H13.216ZM13.216 8.008H14.216C14.216 7.16802 14.033 6.37878 13.6504 5.66141L12.768 6.132L11.8856 6.60259C12.1004 7.00522 12.216 7.46665 12.216 8.008H13.216ZM12.768 6.132L13.6624 5.68479C13.2864 4.93271 12.7076 4.34873 11.9608 3.93919L11.48 4.816L10.9992 5.69281C11.4097 5.91794 11.6896 6.21128 11.8736 6.57921L12.768 6.132ZM11.48 4.816L11.9821 3.95121C11.2106 3.50322 10.2963 3.312 9.296 3.312V4.312V5.312C10.0503 5.312 10.5921 5.45678 10.9779 5.68079L11.48 4.816ZM9.296 4.312V3.312C7.76942 3.312 6.45576 3.79005 5.48381 4.83489L6.216 5.516L6.94819 6.1971C7.46957 5.63661 8.20924 5.312 9.296 5.312V4.312ZM6.216 5.516L5.48381 4.83489C4.52345 5.86728 4.096 7.22642 4.096 8.792H5.096H6.096C6.096 7.59491 6.41522 6.77005 6.94819 6.1971L6.216 5.516ZM5.096 8.792H4.096V13.608H5.096H6.096V8.792H5.096ZM5.096 13.608H4.096C4.096 15.161 4.52629 16.5163 5.46859 17.5764L6.216 16.912L6.96341 16.2476C6.41237 15.6277 6.096 14.7803 6.096 13.608H5.096ZM6.216 16.912L5.47606 17.5847C6.45161 18.6578 7.79063 19.144 9.352 19.144V18.144V17.144C8.22537 17.144 7.47372 16.8089 6.95594 16.2393L6.216 16.912ZM9.352 18.144V19.144C10.8572 19.144 12.1706 18.7449 13.047 17.7357L12.292 17.08L11.537 16.4243C11.1814 16.8337 10.5348 17.144 9.352 17.144V18.144ZM12.292 17.08L13.047 17.7357C13.8448 16.817 14.216 15.6766 14.216 14.392H13.216H12.216C12.216 15.2727 11.9712 15.9243 11.537 16.4243L12.292 17.08ZM13.216 14.392H14.216V14.112H13.216H12.216V14.392H13.216ZM13.216 14.112V13.112H8.568V14.112V15.112H13.216V14.112ZM8.568 14.112H9.568V10.976H8.568H7.568V14.112H8.568ZM8.568 10.976V11.976H16.856V10.976V9.976H8.568V10.976ZM16.856 10.976H15.856V21H16.856H17.856V10.976H16.856ZM16.856 21V20H13.44V21V22H16.856V21ZM13.44 21H14.44V19.124H13.44H12.44V21H13.44ZM13.44 19.124V18.124H12.936V19.124V20.124H13.44V19.124ZM12.936 19.124L12.0113 18.7433C11.9311 18.9382 11.781 19.1864 11.5271 19.4879L12.292 20.132L13.0569 20.7761C13.4004 20.3683 13.6796 19.9445 13.8607 19.5047L12.936 19.124ZM12.292 20.132L11.5071 19.5124C11.365 19.6924 11.0974 19.9045 10.6173 20.1058L11.004 21.028L11.3907 21.9502C12.0679 21.6662 12.659 21.2809 13.0769 20.7516L12.292 20.132ZM11.004 21.028L10.6173 20.1058C10.2129 20.2754 9.57019 20.392 8.624 20.392V21.392V22.392C9.69381 22.392 10.6378 22.266 11.3907 21.9502L11.004 21.028ZM22.9351 20.496L22.4033 21.3429L22.4147 21.3501L22.4263 21.3569L22.9351 20.496ZM21.0591 18.424L20.1685 18.8788L21.0591 18.424ZM20.3871 7.112V6.112H19.3871V7.112H20.3871ZM23.9151 7.112H24.9151V6.112H23.9151V7.112ZM24.6711 17.472L23.9512 18.1661L23.9575 18.1727L23.964 18.1791L24.6711 17.472ZM29.4031 17.192L30.168 17.8362L30.1761 17.8263L29.4031 17.192ZM30.2991 7.112V6.112H29.2991V7.112H30.2991ZM33.8271 7.112H34.8271V6.112H33.8271V7.112ZM33.8271 21V22H34.8271V21H33.8271ZM30.3551 21H29.3551V22H30.3551V21ZM30.3551 19.18H31.3551V18.18H30.3551V19.18ZM29.8511 19.18V18.18H29.2218L28.9495 18.7473L29.8511 19.18ZM28.5911 20.552L29.1792 21.3607L29.1792 21.3607L28.5911 20.552ZM25.7911 21.224V20.224C24.8627 20.224 24.0912 20.0176 23.4438 19.6351L22.9351 20.496L22.4263 21.3569C23.4216 21.9451 24.5541 22.224 25.7911 22.224V21.224ZM22.9351 20.496L23.4668 19.6491C22.8231 19.2449 22.319 18.6925 21.9497 17.9692L21.0591 18.424L20.1685 18.8788C20.6951 19.9102 21.4417 20.7391 22.4033 21.3429L22.9351 20.496ZM21.0591 18.424L21.9497 17.9692C21.584 17.2532 21.3871 16.4053 21.3871 15.4H20.3871H19.3871C19.3871 16.6721 19.6381 17.8402 20.1685 18.8788L21.0591 18.424ZM20.3871 15.4H21.3871V7.112H20.3871H19.3871V15.4H20.3871ZM20.3871 7.112V8.112H23.9151V7.112V6.112H20.3871V7.112ZM23.9151 7.112H22.9151V15.12H23.9151H24.9151V7.112H23.9151ZM23.9151 15.12H22.9151C22.9151 16.3106 23.2016 17.3888 23.9512 18.1661L24.6711 17.472L25.3909 16.7779C25.1325 16.5099 24.9151 16.0201 24.9151 15.12H23.9151ZM24.6711 17.472L23.964 18.1791C24.7239 18.9391 25.7457 19.256 26.8831 19.256V18.256V17.256C26.1164 17.256 25.6635 17.0502 25.3782 16.7649L24.6711 17.472ZM26.8831 18.256V19.256C28.2058 19.256 29.3479 18.81 30.168 17.8361L29.4031 17.192L28.6382 16.5479C28.2635 16.9927 27.7256 17.256 26.8831 17.256V18.256ZM29.4031 17.192L30.1761 17.8263C30.9662 16.8635 31.2991 15.6027 31.2991 14.168H30.2991H29.2991C29.2991 15.3093 29.0346 16.0645 28.63 16.5577L29.4031 17.192ZM30.2991 14.168H31.2991V7.112H30.2991H29.2991V14.168H30.2991ZM30.2991 7.112V8.112H33.8271V7.112V6.112H30.2991V7.112ZM33.8271 7.112H32.8271V21H33.8271H34.8271V7.112H33.8271ZM33.8271 21V20H30.3551V21V22H33.8271V21ZM30.3551 21H31.3551V19.18H30.3551H29.3551V21H30.3551ZM30.3551 19.18V18.18H29.8511V19.18V20.18H30.3551V19.18ZM29.8511 19.18L28.9495 18.7473C28.8231 19.0106 28.5435 19.3501 28.0029 19.7433L28.5911 20.552L29.1792 21.3607C29.8706 20.8579 30.431 20.2827 30.7526 19.6127L29.8511 19.18ZM28.5911 20.552L28.0029 19.7433C27.6363 20.0099 26.9542 20.224 25.7911 20.224V21.224V22.224C27.1292 22.224 28.3138 21.9901 29.1792 21.3607L28.5911 20.552ZM37.753 21H36.753V22H37.753V21ZM37.753 7.112V6.112H36.753V7.112H37.753ZM41.281 7.112H42.281V6.112H41.281V7.112ZM41.281 21V22H42.281V21H41.281ZM37.893 4.872L37.2017 5.59464L37.2094 5.60198L37.2172 5.60915L37.893 4.872ZM37.893 1.624L37.2172 0.886845L37.2094 0.894019L37.2017 0.901357L37.893 1.624ZM37.753 21H38.753V7.112H37.753H36.753V21H37.753ZM37.753 7.112V8.112H41.281V7.112V6.112H37.753V7.112ZM41.281 7.112H40.281V21H41.281H42.281V7.112H41.281ZM41.281 21V20H37.753V21V22H41.281V21ZM39.517 5.488V4.488C39.1203 4.488 38.8235 4.36839 38.5687 4.13485L37.893 4.872L37.2172 5.60915C37.8585 6.19694 38.6443 6.488 39.517 6.488V5.488ZM37.893 4.872L38.5842 4.14936C38.3788 3.95287 38.249 3.68634 38.249 3.248H37.249H36.249C36.249 4.15365 36.5485 4.9698 37.2017 5.59464L37.893 4.872ZM37.249 3.248H38.249C38.249 2.80965 38.3788 2.54313 38.5842 2.34664L37.893 1.624L37.2017 0.901357C36.5485 1.5262 36.249 2.34234 36.249 3.248H37.249ZM37.893 1.624L38.5687 2.36115C38.8235 2.12761 39.1203 2.008 39.517 2.008V1.008V0.0079987C38.6443 0.0079987 37.8585 0.299057 37.2172 0.886845L37.893 1.624ZM39.517 1.008V2.008C39.9408 2.008 40.2258 2.13244 40.4497 2.34664L41.141 1.624L41.8322 0.901357C41.1975 0.294219 40.3998 0.0079987 39.517 0.0079987V1.008ZM41.141 1.624L40.4497 2.34664C40.6552 2.54313 40.785 2.80965 40.785 3.248H41.785H42.785C42.785 2.34234 42.4854 1.5262 41.8322 0.901357L41.141 1.624ZM41.785 3.248H40.785C40.785 3.68634 40.6552 3.95287 40.4497 4.14936L41.141 4.872L41.8322 5.59464C42.4854 4.9698 42.785 4.15365 42.785 3.248H41.785ZM41.141 4.872L40.4497 4.14936C40.2258 4.36355 39.9408 4.488 39.517 4.488V5.488V6.488C40.3998 6.488 41.1975 6.20178 41.8322 5.59464L41.141 4.872ZM45.1905 21H44.1905V22H45.1905V21ZM45.1905 1.4V0.399999H44.1905V1.4H45.1905ZM48.7185 1.4H49.7185V0.399999H48.7185V1.4ZM48.7185 21V22H49.7185V21H48.7185ZM45.1905 21H46.1905V1.4H45.1905H44.1905V21H45.1905ZM45.1905 1.4V2.4H48.7185V1.4V0.399999H45.1905V1.4ZM48.7185 1.4H47.7185V21H48.7185H49.7185V1.4H48.7185ZM48.7185 21V20H45.1905V21V22H48.7185V21ZM52.628 21H51.628V22H52.628V21ZM52.628 1.4V0.399999H51.628V1.4H52.628ZM56.156 1.4H57.156V0.399999H56.156V1.4ZM56.156 21V22H57.156V21H56.156ZM52.628 21H53.628V1.4H52.628H51.628V21H52.628ZM52.628 1.4V2.4H56.156V1.4V0.399999H52.628V1.4ZM56.156 1.4H55.156V21H56.156H57.156V1.4H56.156ZM56.156 21V20H52.628V21V22H56.156V21ZM61.7175 20.888L61.3053 21.7991L61.3144 21.8032L61.3235 21.8071L61.7175 20.888ZM59.8415 19.376L59.0094 19.9307L59.0184 19.9441L59.0277 19.9572L59.8415 19.376ZM59.8415 14.56L59.0277 13.9788L59.0245 13.9833L59.8415 14.56ZM61.7455 13.104L62.1132 14.034L62.1241 14.0295L61.7455 13.104ZM68.3535 12.6V13.6H69.3535V12.6H68.3535ZM67.7375 10.22L67.0148 10.9112L67.0225 10.9193L67.0304 10.9271L67.7375 10.22ZM63.8175 10.192L64.4917 10.9305L64.5003 10.9227L64.5087 10.9146L63.8175 10.192ZM62.9775 11.732L62.6588 12.6799L63.7292 13.0397L63.9569 11.9337L62.9775 11.732ZM59.7295 10.64L58.7759 10.3389L58.4803 11.275L59.4108 11.5879L59.7295 10.64ZM60.7935 8.708L60.0292 8.06313L60.0273 8.06539L60.7935 8.708ZM62.7815 7.28L63.1779 8.19811L63.1876 8.19381L62.7815 7.28ZM70.1735 8.092L69.5216 8.85032L69.5216 8.85032L70.1735 8.092ZM73.6735 18.088H74.6735V17.088H73.6735V18.088ZM73.6735 21V22H74.6735V21H73.6735ZM69.6135 20.496L69.0135 21.296L69.0135 21.296L69.6135 20.496ZM68.9415 19.124H69.9415V18.124H68.9415V19.124ZM68.4095 19.124V18.124H67.6887L67.4608 18.8078L68.4095 19.124ZM67.9055 20.02L68.7105 20.6132L68.7177 20.6034L68.7247 20.5935L67.9055 20.02ZM66.6735 20.972L67.1207 21.8664L66.6735 20.972ZM67.4015 17.724L68.0616 18.4752L68.0631 18.4738L67.4015 17.724ZM68.3535 15.232H69.3535V14.232H68.3535V15.232ZM63.2575 15.652L63.8575 16.452L63.8575 16.452L63.2575 15.652ZM63.2855 18.06L62.6563 18.8372L62.6563 18.8372L63.2855 18.06ZM64.3775 21.392V20.392C63.5021 20.392 62.7526 20.2437 62.1114 19.9689L61.7175 20.888L61.3235 21.8071C62.2503 22.2043 63.2742 22.392 64.3775 22.392V21.392ZM61.7175 20.888L62.1296 19.9769C61.4943 19.6895 61.0121 19.2944 60.6552 18.7948L59.8415 19.376L59.0277 19.9572C59.6042 20.7643 60.3726 21.3772 61.3053 21.7991L61.7175 20.888ZM59.8415 19.376L60.6735 18.8213C60.3534 18.3412 60.1695 17.7306 60.1695 16.94H59.1695H58.1695C58.1695 18.0534 58.4335 19.0668 59.0094 19.9307L59.8415 19.376ZM59.1695 16.94H60.1695C60.1695 16.1473 60.3541 15.5678 60.6584 15.1367L59.8415 14.56L59.0245 13.9833C58.4328 14.8216 58.1695 15.8287 58.1695 16.94H59.1695ZM59.8415 14.56L60.6552 15.1412C61.0014 14.6565 61.4756 14.286 62.1131 14.034L61.7455 13.104L61.3778 12.174C60.41 12.5567 59.6149 13.1568 59.0277 13.9788L59.8415 14.56ZM61.7455 13.104L62.1241 14.0295C62.8059 13.7506 63.6073 13.6 64.5455 13.6V12.6V11.6C63.393 11.6 62.3277 11.7854 61.3668 12.1785L61.7455 13.104ZM64.5455 12.6V13.6H68.3535V12.6V11.6H64.5455V12.6ZM68.3535 12.6H69.3535V11.816H68.3535H67.3535V12.6H68.3535ZM68.3535 11.816H69.3535C69.3535 10.9336 69.0669 10.1352 68.4446 9.51289L67.7375 10.22L67.0304 10.9271C67.2294 11.1261 67.3535 11.3917 67.3535 11.816H68.3535ZM67.7375 10.22L68.4601 9.52878C67.7831 8.82099 66.8087 8.576 65.7775 8.576V9.576V10.576C66.5382 10.576 66.8705 10.7603 67.0148 10.9112L67.7375 10.22ZM65.7775 9.576V8.576C64.7639 8.576 63.8139 8.81156 63.1262 9.46936L63.8175 10.192L64.5087 10.9146C64.6797 10.7511 65.0364 10.576 65.7775 10.576V9.576ZM63.8175 10.192L63.1432 9.45351C62.5403 10.004 62.1661 10.7138 61.998 11.5303L62.9775 11.732L63.9569 11.9337C64.0502 11.4808 64.2359 11.164 64.4917 10.9305L63.8175 10.192ZM62.9775 11.732L63.2961 10.7841L60.0481 9.69214L59.7295 10.64L59.4108 11.5879L62.6588 12.6799L62.9775 11.732ZM59.7295 10.64L60.6831 10.9411C60.867 10.3588 61.1572 9.83041 61.5597 9.35061L60.7935 8.708L60.0273 8.06539C59.459 8.74292 59.04 9.50258 58.7759 10.3389L59.7295 10.64ZM60.7935 8.708L61.5578 9.35287C61.9484 8.88991 62.478 8.50028 63.1779 8.19806L62.7815 7.28L62.385 6.36194C61.4422 6.76906 60.6466 7.33143 60.0292 8.06313L60.7935 8.708ZM62.7815 7.28L63.1876 8.19381C63.8676 7.89161 64.7386 7.72 65.8335 7.72V6.72V5.72C64.539 5.72 63.3754 5.92172 62.3753 6.36619L62.7815 7.28ZM65.8335 6.72V7.72C67.4976 7.72 68.6882 8.13387 69.5216 8.85032L70.1735 8.092L70.8254 7.33368C69.5308 6.2208 67.828 5.72 65.8335 5.72V6.72ZM70.1735 8.092L69.5216 8.85032C70.3134 9.53097 70.7695 10.5483 70.7695 12.068H71.7695H72.7695C72.7695 10.1157 72.1616 8.48236 70.8254 7.33368L70.1735 8.092ZM71.7695 12.068H70.7695V17.248H71.7695H72.7695V12.068H71.7695ZM71.7695 17.248H70.7695C70.7695 17.6656 70.8655 18.1651 71.2344 18.5603C71.6154 18.9685 72.1196 19.088 72.5535 19.088V18.088V17.088C72.5094 17.088 72.5133 17.0818 72.5468 17.0938C72.5859 17.1077 72.6436 17.139 72.6965 17.1957C72.8041 17.3109 72.7695 17.3904 72.7695 17.248H71.7695ZM72.5535 18.088V19.088H73.6735V18.088V17.088H72.5535V18.088ZM73.6735 18.088H72.6735V21H73.6735H74.6735V18.088H73.6735ZM73.6735 21V20H71.3215V21V22H73.6735V21ZM71.3215 21V20C70.7957 20 70.4513 19.8744 70.2135 19.696L69.6135 20.496L69.0135 21.296C69.6717 21.7896 70.4659 22 71.3215 22V21ZM69.6135 20.496L70.2135 19.696C70.0173 19.5489 69.9415 19.3972 69.9415 19.152H68.9415H67.9415C67.9415 20.0268 68.3137 20.7711 69.0135 21.296L69.6135 20.496ZM68.9415 19.152H69.9415V19.124H68.9415H67.9415V19.152H68.9415ZM68.9415 19.124V18.124H68.4095V19.124V20.124H68.9415V19.124ZM68.4095 19.124L67.4608 18.8078C67.4332 18.8906 67.3335 19.0933 67.0862 19.4465L67.9055 20.02L68.7247 20.5935C69.0001 20.2001 69.2364 19.8054 69.3582 19.4402L68.4095 19.124ZM67.9055 20.02L67.1004 19.4268C66.9639 19.612 66.7006 19.8404 66.2263 20.0776L66.6735 20.972L67.1207 21.8664C67.7664 21.5436 68.3243 21.1373 68.7105 20.6132L67.9055 20.02ZM66.6735 20.972L66.2263 20.0776C65.8607 20.2603 65.2701 20.392 64.3775 20.392V21.392V22.392C65.4262 22.392 66.3662 22.2437 67.1207 21.8664L66.6735 20.972ZM64.9935 18.536V19.536C66.1732 19.536 67.2271 19.2085 68.0616 18.4752L67.4015 17.724L66.7414 16.9728C66.3438 17.3222 65.7924 17.536 64.9935 17.536V18.536ZM67.4015 17.724L68.0631 18.4738C68.9317 17.7074 69.3535 16.6875 69.3535 15.512H68.3535H67.3535C67.3535 16.1658 67.1406 16.6206 66.7398 16.9742L67.4015 17.724ZM68.3535 15.512H69.3535V15.232H68.3535H67.3535V15.512H68.3535ZM68.3535 15.232V14.232H64.7975V15.232V16.232H68.3535V15.232ZM64.7975 15.232V14.232C64.0122 14.232 63.2611 14.3993 62.6575 14.852L63.2575 15.652L63.8575 16.452C64.0005 16.3447 64.2761 16.232 64.7975 16.232V15.232ZM63.2575 15.652L62.6575 14.852C62.0098 15.3377 61.6975 16.0385 61.6975 16.828H62.6975H63.6975C63.6975 16.6095 63.7584 16.5263 63.8575 16.452L63.2575 15.652ZM62.6975 16.828H61.6975C61.6975 17.634 62.0299 18.3302 62.6563 18.8372L63.2855 18.06L63.9147 17.2828C63.757 17.1551 63.6975 17.03 63.6975 16.828H62.6975ZM63.2855 18.06L62.6563 18.8372C63.2942 19.3537 64.1239 19.536 64.9935 19.536V18.536V17.536C64.3697 17.536 64.0607 17.401 63.9147 17.2828L63.2855 18.06ZM78.3062 20.496L77.7744 21.3429L77.7858 21.3501L77.7974 21.3569L78.3062 20.496ZM76.4302 18.424L75.5396 18.8788L76.4302 18.424ZM75.7582 7.112V6.112H74.7582V7.112H75.7582ZM79.2862 7.112H80.2862V6.112H79.2862V7.112ZM80.0422 17.472L79.3223 18.1661L79.3286 18.1727L79.335 18.1791L80.0422 17.472ZM84.7742 17.192L85.5391 17.8362L85.5472 17.8263L84.7742 17.192ZM85.6702 7.112V6.112H84.6702V7.112H85.6702ZM89.1982 7.112H90.1982V6.112H89.1982V7.112ZM89.1982 21V22H90.1982V21H89.1982ZM85.7262 21H84.7262V22H85.7262V21ZM85.7262 19.18H86.7262V18.18H85.7262V19.18ZM85.2222 19.18V18.18H84.5929L84.3206 18.7473L85.2222 19.18ZM83.9622 20.552L84.5503 21.3607L84.5503 21.3607L83.9622 20.552ZM81.1622 21.224V20.224C80.2338 20.224 79.4622 20.0176 78.8149 19.6351L78.3062 20.496L77.7974 21.3569C78.7927 21.9451 79.9251 22.224 81.1622 22.224V21.224ZM78.3062 20.496L78.8379 19.6491C78.1942 19.2449 77.6901 18.6925 77.3208 17.9692L76.4302 18.424L75.5396 18.8788C76.0662 19.9102 76.8128 20.7391 77.7744 21.3429L78.3062 20.496ZM76.4302 18.424L77.3208 17.9692C76.9551 17.2532 76.7582 16.4053 76.7582 15.4H75.7582H74.7582C74.7582 16.6721 75.0092 17.8402 75.5396 18.8788L76.4302 18.424ZM75.7582 15.4H76.7582V7.112H75.7582H74.7582V15.4H75.7582ZM75.7582 7.112V8.112H79.2862V7.112V6.112H75.7582V7.112ZM79.2862 7.112H78.2862V15.12H79.2862H80.2862V7.112H79.2862ZM79.2862 15.12H78.2862C78.2862 16.3106 78.5727 17.3888 79.3223 18.1661L80.0422 17.472L80.762 16.7779C80.5036 16.5099 80.2862 16.0201 80.2862 15.12H79.2862ZM80.0422 17.472L79.335 18.1791C80.095 18.9391 81.1168 19.256 82.2542 19.256V18.256V17.256C81.4875 17.256 81.0346 17.0502 80.7493 16.7649L80.0422 17.472ZM82.2542 18.256V19.256C83.5769 19.256 84.719 18.81 85.5391 17.8361L84.7742 17.192L84.0092 16.5479C83.6346 16.9927 83.0967 17.256 82.2542 17.256V18.256ZM84.7742 17.192L85.5472 17.8263C86.3373 16.8635 86.6702 15.6027 86.6702 14.168H85.6702H84.6702C84.6702 15.3093 84.4057 16.0645 84.0011 16.5577L84.7742 17.192ZM85.6702 14.168H86.6702V7.112H85.6702H84.6702V14.168H85.6702ZM85.6702 7.112V8.112H89.1982V7.112V6.112H85.6702V7.112ZM89.1982 7.112H88.1982V21H89.1982H90.1982V7.112H89.1982ZM89.1982 21V20H85.7262V21V22H89.1982V21ZM85.7262 21H86.7262V19.18H85.7262H84.7262V21H85.7262ZM85.7262 19.18V18.18H85.2222V19.18V20.18H85.7262V19.18ZM85.2222 19.18L84.3206 18.7473C84.1942 19.0106 83.9146 19.3501 83.374 19.7433L83.9622 20.552L84.5503 21.3607C85.2417 20.8579 85.8021 20.2827 86.1237 19.6127L85.2222 19.18ZM83.9622 20.552L83.374 19.7433C83.0074 20.0099 82.3253 20.224 81.1622 20.224V21.224V22.224C82.5003 22.224 83.6849 21.9901 84.5503 21.3607L83.9622 20.552ZM93.1241 21H92.1241V22H93.1241V21ZM93.1241 7.112V6.112H92.1241V7.112H93.1241ZM96.5961 7.112H97.5961V6.112H96.5961V7.112ZM96.5961 8.624H95.5961V9.624H96.5961V8.624ZM97.1001 8.624V9.624H97.7072L97.9873 9.08535L97.1001 8.624ZM98.3041 7.42L98.8186 8.27749L98.8289 8.27128L98.8391 8.26482L98.3041 7.42ZM102.896 7.476L102.347 8.31205L102.357 8.31813L102.366 8.324L102.896 7.476ZM104.268 8.96L103.379 9.41796L103.658 9.96H104.268V8.96ZM104.772 8.96V9.96H105.373L105.655 9.42915L104.772 8.96ZM106.116 7.476L106.677 8.30392L106.677 8.30392L106.116 7.476ZM110.904 7.448L110.429 8.32771L110.443 8.33529L110.457 8.34243L110.904 7.448ZM112.584 9.1L111.708 9.58192L111.715 9.59506L111.723 9.60798L112.584 9.1ZM113.228 21V22H114.228V21H113.228ZM109.7 21H108.7V22H109.7V21ZM109.112 10.416L108.405 11.1231L108.414 11.1317L108.422 11.1401L109.112 10.416ZM105.584 10.612L104.825 9.96121L104.823 9.96353L105.584 10.612ZM104.94 21V22H105.94V21H104.94ZM101.412 21H100.412V22H101.412V21ZM100.824 10.416L100.117 11.1231L100.126 11.1317L100.134 11.1401L100.824 10.416ZM97.2961 10.612L96.5368 9.9612L96.5348 9.96353L97.2961 10.612ZM96.6521 21V22H97.6521V21H96.6521ZM93.1241 21H94.1241V7.112H93.1241H92.1241V21H93.1241ZM93.1241 7.112V8.112H96.5961V7.112V6.112H93.1241V7.112ZM96.5961 7.112H95.5961V8.624H96.5961H97.5961V7.112H96.5961ZM96.5961 8.624V9.624H97.1001V8.624V7.624H96.5961V8.624ZM97.1001 8.624L97.9873 9.08535C98.1263 8.81804 98.3789 8.54129 98.8186 8.27749L98.3041 7.42L97.7896 6.56251C97.1092 6.97071 96.5592 7.49662 96.2128 8.16265L97.1001 8.624ZM98.3041 7.42L98.8391 8.26482C99.1892 8.04313 99.7215 7.888 100.516 7.888V6.888V5.888C99.4813 5.888 98.539 6.08754 97.769 6.57518L98.3041 7.42ZM100.516 6.888V7.888C101.383 7.888 101.965 8.06081 102.347 8.31205L102.896 7.476L103.445 6.63995C102.633 6.10719 101.628 5.888 100.516 5.888V6.888ZM102.896 7.476L102.366 8.324C102.813 8.60364 103.146 8.96466 103.379 9.41796L104.268 8.96L105.157 8.50204C104.756 7.72334 104.173 7.09503 103.426 6.628L102.896 7.476ZM104.268 8.96V9.96H104.772V8.96V7.96H104.268V8.96ZM104.772 8.96L105.655 9.42915C105.893 8.98081 106.229 8.60758 106.677 8.30392L106.116 7.476L105.555 6.64808C104.846 7.12842 104.285 7.74452 103.889 8.49084L104.772 8.96ZM106.116 7.476L106.677 8.30392C107.024 8.06853 107.618 7.888 108.58 7.888V6.888V5.888C107.414 5.888 106.365 6.09947 105.555 6.64808L106.116 7.476ZM108.58 6.888V7.888C109.289 7.888 109.897 8.04056 110.429 8.32771L110.904 7.448L111.38 6.56829C110.529 6.10877 109.589 5.888 108.58 5.888V6.888ZM110.904 7.448L110.457 8.34243C110.971 8.59945 111.387 8.99916 111.708 9.58192L112.584 9.1L113.46 8.61808C112.959 7.7075 112.256 7.00588 111.351 6.55357L110.904 7.448ZM112.584 9.1L111.723 9.60798C112.036 10.1399 112.228 10.8743 112.228 11.872H113.228H114.228C114.228 10.6297 113.99 9.51615 113.445 8.59201L112.584 9.1ZM113.228 11.872H112.228V21H113.228H114.228V11.872H113.228ZM113.228 21V20H109.7V21V22H113.228V21ZM109.7 21H110.7V12.124H109.7H108.7V21H109.7ZM109.7 12.124H110.7C110.7 11.2004 110.462 10.321 109.802 9.69186L109.112 10.416L108.422 11.1401C108.546 11.2577 108.7 11.517 108.7 12.124H109.7ZM109.112 10.416L109.819 9.70889C109.191 9.08076 108.357 8.828 107.46 8.828V9.828V10.828C107.982 10.828 108.249 10.9672 108.405 11.1231L109.112 10.416ZM107.46 9.828V8.828C106.419 8.828 105.495 9.17915 104.825 9.96121L105.584 10.612L106.343 11.2628C106.569 10.9995 106.896 10.828 107.46 10.828V9.828ZM105.584 10.612L104.823 9.96353C104.184 10.7134 103.94 11.7085 103.94 12.796H104.94H105.94C105.94 11.9795 106.125 11.5186 106.345 11.2605L105.584 10.612ZM104.94 12.796H103.94V21H104.94H105.94V12.796H104.94ZM104.94 21V20H101.412V21V22H104.94V21ZM101.412 21H102.412V12.124H101.412H100.412V21H101.412ZM101.412 12.124H102.412C102.412 11.2004 102.174 10.321 101.514 9.69186L100.824 10.416L100.134 11.1401C100.258 11.2577 100.412 11.517 100.412 12.124H101.412ZM100.824 10.416L101.531 9.70889C100.903 9.08076 100.069 8.828 99.1721 8.828V9.828V10.828C99.6939 10.828 99.9611 10.9672 100.117 11.1231L100.824 10.416ZM99.1721 9.828V8.828C98.1312 8.828 97.2071 9.17915 96.5368 9.96121L97.2961 10.612L98.0553 11.2628C98.281 10.9995 98.6076 10.828 99.1721 10.828V9.828ZM97.2961 10.612L96.5348 9.96353C95.896 10.7134 95.6521 11.7085 95.6521 12.796H96.6521H97.6521C97.6521 11.9795 97.8374 11.5186 98.0573 11.2605L97.2961 10.612ZM96.6521 12.796H95.6521V21H96.6521H97.6521V12.796H96.6521ZM96.6521 21V20H93.1241V21V22H96.6521V21ZM119.683 20.524L119.186 21.3922L119.195 21.3975L119.205 21.4025L119.683 20.524ZM117.219 18.032L116.337 18.5034L116.341 18.5125L116.347 18.5215L117.219 18.032ZM117.219 10.108L118.097 10.5858L118.1 10.5794L117.219 10.108ZM119.655 7.616L120.139 8.49097L120.151 8.48424L119.655 7.616ZM126.851 7.644L126.329 8.49736L126.341 8.50429L126.851 7.644ZM129.202 10.164L128.314 10.6234L128.318 10.6297L129.202 10.164ZM130.043 15.092V16.092H131.043V15.092H130.043ZM119.935 15.092V14.092H118.895L118.935 15.1312L119.935 15.092ZM125.647 17.668L124.969 16.9321L125.647 17.668ZM126.711 16.24L127.175 15.3543L126.245 14.8671L125.803 15.8189L126.711 16.24ZM129.595 17.752L130.475 18.2261L130.954 17.3358L130.059 16.8663L129.595 17.752ZM128.447 19.348L127.692 18.6912L127.691 18.6931L128.447 19.348ZM126.487 20.804L126.917 21.7065L126.926 21.7025L126.934 21.6984L126.487 20.804ZM119.963 12.46L118.975 12.2993L118.787 13.46H119.963V12.46ZM126.459 12.46V13.46H127.556L127.454 12.3674L126.459 12.46ZM125.479 10.528L124.824 11.2837L124.83 11.289L124.836 11.2942L125.479 10.528ZM123.351 21.392V20.392C122.112 20.392 121.058 20.1338 120.16 19.6455L119.683 20.524L119.205 21.4025C120.435 22.0715 121.826 22.392 123.351 22.392V21.392ZM119.683 20.524L120.179 19.6558C119.293 19.1496 118.6 18.4508 118.09 17.5425L117.219 18.032L116.347 18.5215C117.031 19.7412 117.982 20.7038 119.186 21.3922L119.683 20.524ZM117.219 18.032L118.1 17.5606C117.613 16.6477 117.351 15.5461 117.351 14.224H116.351H115.351C115.351 15.8139 115.667 17.2509 116.337 18.5034L117.219 18.032ZM116.351 14.224H117.351V13.888H116.351H115.351V14.224H116.351ZM116.351 13.888H117.351C117.351 12.5653 117.613 11.4762 118.097 10.5858L117.219 10.108L116.34 9.63023C115.667 10.8678 115.351 12.2987 115.351 13.888H116.351ZM117.219 10.108L118.1 10.5794C118.591 9.66179 119.267 8.97352 120.139 8.49089L119.655 7.616L119.17 6.74111C117.951 7.41581 117.003 8.38887 116.337 9.63662L117.219 10.108ZM119.655 7.616L120.151 8.48424C121.024 7.98529 122.061 7.72 123.294 7.72V6.72V5.72C121.765 5.72 120.376 6.05204 119.158 6.74776L119.655 7.616ZM123.294 6.72V7.72C124.502 7.72 125.501 7.9912 126.329 8.49728L126.851 7.644L127.372 6.79072C126.184 6.0648 124.812 5.72 123.294 5.72V6.72ZM126.851 7.644L126.341 8.50429C127.181 9.00213 127.837 9.70015 128.314 10.6234L129.202 10.164L130.091 9.70458C129.448 8.46252 128.536 7.48054 127.36 6.78371L126.851 7.644ZM129.202 10.164L128.318 10.6297C128.789 11.5264 129.043 12.6025 129.043 13.888H130.043H131.043C131.043 12.3362 130.736 10.9296 130.087 9.69825L129.202 10.164ZM130.043 13.888H129.043V15.092H130.043H131.043V13.888H130.043ZM130.043 15.092V14.092H119.935V15.092V16.092H130.043V15.092ZM119.935 15.092L118.935 15.1312C118.983 16.3369 119.446 17.3737 120.334 18.1634L120.999 17.416L121.663 16.6686C121.207 16.2637 120.961 15.7511 120.934 15.0528L119.935 15.092ZM120.999 17.416L120.334 18.1634C121.204 18.937 122.268 19.312 123.463 19.312V18.312V17.312C122.716 17.312 122.137 17.0897 121.663 16.6686L120.999 17.416ZM123.463 18.312V19.312C124.568 19.312 125.593 19.0765 126.324 18.4039L125.647 17.668L124.969 16.9321C124.767 17.1182 124.336 17.312 123.463 17.312V18.312ZM125.647 17.668L126.324 18.4039C126.877 17.8947 127.314 17.3142 127.618 16.6611L126.711 16.24L125.803 15.8189C125.621 16.2111 125.349 16.5826 124.969 16.9321L125.647 17.668ZM126.711 16.24L126.246 17.1257L129.13 18.6377L129.595 17.752L130.059 16.8663L127.175 15.3543L126.711 16.24ZM129.595 17.752L128.714 17.2779C128.499 17.678 128.165 18.1485 127.692 18.6912L128.447 19.348L129.201 20.0048C129.736 19.3902 130.168 18.7967 130.475 18.2261L129.595 17.752ZM128.447 19.348L127.691 18.6931C127.309 19.1331 126.77 19.5441 126.039 19.9096L126.487 20.804L126.934 21.6984C127.845 21.2426 128.613 20.6829 129.202 20.0029L128.447 19.348ZM126.487 20.804L126.056 19.9015C125.411 20.2092 124.526 20.392 123.351 20.392V21.392V22.392C124.714 22.392 125.919 22.1828 126.917 21.7065L126.487 20.804ZM119.963 12.46V13.46H126.459V12.46V11.46H119.963V12.46ZM126.459 12.46L127.454 12.3674C127.357 11.322 126.916 10.4286 126.121 9.76181L125.479 10.528L124.836 11.2942C125.198 11.5981 125.411 11.9927 125.463 12.5526L126.459 12.46ZM125.479 10.528L126.133 9.77231C125.352 9.09489 124.363 8.8 123.267 8.8V9.8V10.8C123.999 10.8 124.485 10.9904 124.824 11.2837L125.479 10.528ZM123.267 9.8V8.8C122.144 8.8 121.132 9.08883 120.344 9.77231L120.999 10.528L121.653 11.2837C121.985 10.9965 122.485 10.8 123.267 10.8V9.8ZM120.999 10.528L120.344 9.77231C119.589 10.4263 119.14 11.2897 118.975 12.2993L119.963 12.46L120.95 12.6207C121.046 12.025 121.288 11.6004 121.653 11.2837L120.999 10.528ZM141.86 19.376L141.167 20.0972L141.172 20.102L141.86 19.376ZM141.86 3.052L142.548 3.77797L142.553 3.7732L141.86 3.052ZM153.2 2.996L152.488 3.69807L152.493 3.70312L152.498 3.7081L153.2 2.996ZM155.188 8.568V9.568H156.188V8.568H155.188ZM151.548 8.568H150.548V9.568H151.548V8.568ZM150.568 5.432L149.806 6.07965L149.811 6.08511L149.815 6.0905L150.568 5.432ZM144.548 5.516L143.816 4.83489L144.548 5.516ZM144.548 16.884L143.808 17.5567L143.816 17.5651L144.548 16.884ZM150.568 16.968L149.807 16.3187L149.806 16.3204L150.568 16.968ZM151.548 13.608V12.608H150.548V13.608H151.548ZM155.188 13.608H156.188V12.608H155.188V13.608ZM153.2 19.432L152.493 18.7249L152.493 18.7249L153.2 19.432ZM147.628 21.392V20.392C145.392 20.392 143.738 19.778 142.548 18.65L141.86 19.376L141.172 20.102C142.819 21.662 145.01 22.392 147.628 22.392V21.392ZM141.86 19.376L142.553 18.6548C141.382 17.5301 140.732 15.8805 140.732 13.552H139.732H138.732C138.732 16.2635 139.501 18.4966 141.167 20.0972L141.86 19.376ZM139.732 13.552H140.732V8.848H139.732H138.732V13.552H139.732ZM139.732 8.848H140.732C140.732 6.51878 141.382 4.88231 142.548 3.77795L141.86 3.052L141.172 2.32605C139.501 3.90969 138.732 6.13722 138.732 8.848H139.732ZM141.86 3.052L142.553 3.7732C143.744 2.62911 145.396 2.008 147.628 2.008V1.008V0.0079987C145.007 0.0079987 142.814 0.749552 141.167 2.3308L141.86 3.052ZM147.628 1.008V2.008C149.851 2.008 151.42 2.6149 152.488 3.69807L153.2 2.996L153.912 2.29393C152.367 0.726427 150.221 0.0079987 147.628 0.0079987V1.008ZM153.2 2.996L152.498 3.7081C153.59 4.7848 154.188 6.30518 154.188 8.4H155.188H156.188C156.188 5.90282 155.461 3.82054 153.902 2.2839L153.2 2.996ZM155.188 8.4H154.188V8.568H155.188H156.188V8.4H155.188ZM155.188 8.568V7.568H151.548V8.568V9.568H155.188V8.568ZM151.548 8.568H152.548V8.288H151.548H150.548V8.568H151.548ZM151.548 8.288H152.548C152.548 6.93113 152.159 5.7322 151.321 4.77349L150.568 5.432L149.815 6.0905C150.283 6.62513 150.548 7.3302 150.548 8.288H151.548ZM150.568 5.432L151.33 4.78435C150.444 3.74258 149.138 3.312 147.628 3.312V4.312V5.312C148.769 5.312 149.422 5.62808 149.806 6.07965L150.568 5.432ZM147.628 4.312V3.312C146.101 3.312 144.788 3.79005 143.816 4.83489L144.548 5.516L145.28 6.1971C145.802 5.63661 146.541 5.312 147.628 5.312V4.312ZM144.548 5.516L143.816 4.83489C142.855 5.86728 142.428 7.22642 142.428 8.792H143.428H144.428C144.428 7.59491 144.747 6.77005 145.28 6.1971L144.548 5.516ZM143.428 8.792H142.428V13.608H143.428H144.428V8.792H143.428ZM143.428 13.608H142.428C142.428 15.1601 142.858 16.5116 143.808 17.5567L144.548 16.884L145.288 16.2113C144.745 15.6137 144.428 14.7812 144.428 13.608H143.428ZM144.548 16.884L143.816 17.5651C144.788 18.6099 146.101 19.088 147.628 19.088V18.088V17.088C146.541 17.088 145.802 16.7634 145.28 16.2029L144.548 16.884ZM147.628 18.088V19.088C149.138 19.088 150.444 18.6574 151.33 17.6156L150.568 16.968L149.806 16.3204C149.422 16.7719 148.769 17.088 147.628 17.088V18.088ZM150.568 16.968L151.329 17.6173C152.157 16.6471 152.548 15.4553 152.548 14.112H151.548H150.548C150.548 15.046 150.286 15.7583 149.807 16.3187L150.568 16.968ZM151.548 14.112H152.548V13.608H151.548H150.548V14.112H151.548ZM151.548 13.608V14.608H155.188V13.608V12.608H151.548V13.608ZM155.188 13.608H154.188V14H155.188H156.188V13.608H155.188ZM155.188 14H154.188C154.188 16.0942 153.59 17.6276 152.493 18.7249L153.2 19.432L153.907 20.1391C155.461 18.5857 156.188 16.4978 156.188 14H155.188ZM153.2 19.432L152.493 18.7249C151.426 19.7921 149.855 20.392 147.628 20.392V21.392V22.392C150.218 22.392 152.361 21.6852 153.907 20.1391L153.2 19.432ZM158.312 21H157.312V22H158.312V21ZM158.312 7.112V6.112H157.312V7.112H158.312ZM161.784 7.112H162.784V6.112H161.784V7.112ZM161.784 8.68H160.784V9.68H161.784V8.68ZM162.288 8.68V9.68H162.986L163.226 9.02425L162.288 8.68ZM163.296 7.448L162.821 6.56753L162.814 6.57145L162.807 6.57549L163.296 7.448ZM166.656 7.056H167.656V6.056H166.656V7.056ZM166.656 10.192V11.192H167.656V10.192H166.656ZM162.708 10.92L163.335 11.6984L163.343 11.6924L163.35 11.6862L162.708 10.92ZM161.84 21V22H162.84V21H161.84ZM158.312 21H159.312V7.112H158.312H157.312V21H158.312ZM158.312 7.112V8.112H161.784V7.112V6.112H158.312V7.112ZM161.784 7.112H160.784V8.68H161.784H162.784V7.112H161.784ZM161.784 8.68V9.68H162.288V8.68V7.68H161.784V8.68ZM162.288 8.68L163.226 9.02425C163.36 8.66083 163.55 8.45155 163.784 8.32051L163.296 7.448L162.807 6.57549C162.108 6.96711 161.626 7.57917 161.349 8.33574L162.288 8.68ZM163.296 7.448L163.77 8.32847C164.089 8.15675 164.481 8.056 164.976 8.056V7.056V6.056C164.201 6.056 163.473 6.21658 162.821 6.56753L163.296 7.448ZM164.976 7.056V8.056H166.656V7.056V6.056H164.976V7.056ZM166.656 7.056H165.656V10.192H166.656H167.656V7.056H166.656ZM166.656 10.192V9.192H164.92V10.192V11.192H166.656V10.192ZM164.92 10.192V9.192C163.834 9.192 162.856 9.49039 162.065 10.1538L162.708 10.92L163.35 11.6862C163.717 11.3789 164.213 11.192 164.92 11.192V10.192ZM162.708 10.92L162.08 10.1416C161.193 10.8565 160.84 11.9194 160.84 13.104H161.84H162.84C162.84 12.3099 163.064 11.9169 163.335 11.6984L162.708 10.92ZM161.84 13.104H160.84V21H161.84H162.84V13.104H161.84ZM161.84 21V20H158.312V21V22H161.84V21ZM171.581 20.524L171.085 21.3922L171.094 21.3975L171.103 21.4025L171.581 20.524ZM169.117 18.032L168.235 18.5034L168.24 18.5125L168.245 18.5215L169.117 18.032ZM169.117 10.108L169.995 10.5858L169.999 10.5794L169.117 10.108ZM171.553 7.616L172.037 8.49097L172.049 8.48424L171.553 7.616ZM178.749 7.644L178.227 8.49736L178.239 8.50429L178.749 7.644ZM181.101 10.164L180.213 10.6234L180.216 10.6297L181.101 10.164ZM181.941 15.092V16.092H182.941V15.092H181.941ZM171.833 15.092V14.092H170.793L170.834 15.1312L171.833 15.092ZM177.545 17.668L176.868 16.9321L177.545 17.668ZM178.609 16.24L179.073 15.3543L178.144 14.8671L177.702 15.8189L178.609 16.24ZM181.493 17.752L182.373 18.2261L182.853 17.3358L181.957 16.8663L181.493 17.752ZM180.345 19.348L179.591 18.6912L179.589 18.6931L180.345 19.348ZM178.385 20.804L178.816 21.7065L178.824 21.7025L178.832 21.6984L178.385 20.804ZM171.861 12.46L170.874 12.2993L170.685 13.46H171.861V12.46ZM178.357 12.46V13.46H179.454L179.353 12.3674L178.357 12.46ZM177.377 10.528L176.722 11.2837L176.728 11.289L176.734 11.2942L177.377 10.528ZM175.249 21.392V20.392C174.011 20.392 172.957 20.1338 172.059 19.6455L171.581 20.524L171.103 21.4025C172.333 22.0715 173.724 22.392 175.249 22.392V21.392ZM171.581 20.524L172.077 19.6558C171.191 19.1496 170.499 18.4508 169.989 17.5425L169.117 18.032L168.245 18.5215C168.93 19.7412 169.88 20.7038 171.085 21.3922L171.581 20.524ZM169.117 18.032L169.999 17.5606C169.511 16.6477 169.249 15.5461 169.249 14.224H168.249H167.249C167.249 15.8139 167.566 17.2509 168.235 18.5034L169.117 18.032ZM168.249 14.224H169.249V13.888H168.249H167.249V14.224H168.249ZM168.249 13.888H169.249C169.249 12.5653 169.511 11.4762 169.995 10.5858L169.117 10.108L168.238 9.63023C167.565 10.8678 167.249 12.2987 167.249 13.888H168.249ZM169.117 10.108L169.999 10.5794C170.489 9.66179 171.165 8.97352 172.037 8.49089L171.553 7.616L171.069 6.74111C169.85 7.41581 168.902 8.38887 168.235 9.63662L169.117 10.108ZM171.553 7.616L172.049 8.48424C172.922 7.98529 173.96 7.72 175.193 7.72V6.72V5.72C173.664 5.72 172.274 6.05204 171.057 6.74776L171.553 7.616ZM175.193 6.72V7.72C176.4 7.72 177.399 7.9912 178.227 8.49728L178.749 7.644L179.27 6.79072C178.083 6.0648 176.711 5.72 175.193 5.72V6.72ZM178.749 7.644L178.239 8.50429C179.079 9.00213 179.735 9.70015 180.213 10.6234L181.101 10.164L181.989 9.70458C181.347 8.46252 180.435 7.48054 179.259 6.78371L178.749 7.644ZM181.101 10.164L180.216 10.6297C180.688 11.5264 180.941 12.6025 180.941 13.888H181.941H182.941C182.941 12.3362 182.634 10.9296 181.986 9.69825L181.101 10.164ZM181.941 13.888H180.941V15.092H181.941H182.941V13.888H181.941ZM181.941 15.092V14.092H171.833V15.092V16.092H181.941V15.092ZM171.833 15.092L170.834 15.1312C170.881 16.3369 171.344 17.3737 172.233 18.1634L172.897 17.416L173.561 16.6686C173.106 16.2637 172.86 15.7511 172.832 15.0528L171.833 15.092ZM172.897 17.416L172.233 18.1634C173.103 18.937 174.167 19.312 175.361 19.312V18.312V17.312C174.614 17.312 174.035 17.0897 173.561 16.6686L172.897 17.416ZM175.361 18.312V19.312C176.466 19.312 177.491 19.0765 178.222 18.4039L177.545 17.668L176.868 16.9321C176.666 17.1182 176.234 17.312 175.361 17.312V18.312ZM177.545 17.668L178.222 18.4039C178.775 17.8947 179.213 17.3142 179.516 16.6611L178.609 16.24L177.702 15.8189C177.52 16.2111 177.248 16.5826 176.868 16.9321L177.545 17.668ZM178.609 16.24L178.145 17.1257L181.029 18.6377L181.493 17.752L181.957 16.8663L179.073 15.3543L178.609 16.24ZM181.493 17.752L180.612 17.2779C180.397 17.678 180.064 18.1485 179.591 18.6912L180.345 19.348L181.099 20.0048C181.634 19.3902 182.066 18.7967 182.373 18.2261L181.493 17.752ZM180.345 19.348L179.589 18.6931C179.208 19.1331 178.669 19.5441 177.938 19.9096L178.385 20.804L178.832 21.6984C179.744 21.2426 180.511 20.6829 181.101 20.0029L180.345 19.348ZM178.385 20.804L177.954 19.9015C177.31 20.2092 176.424 20.392 175.249 20.392V21.392V22.392C176.612 22.392 177.818 22.1828 178.816 21.7065L178.385 20.804ZM171.861 12.46V13.46H178.357V12.46V11.46H171.861V12.46ZM178.357 12.46L179.353 12.3674C179.255 11.322 178.815 10.4286 178.02 9.76181L177.377 10.528L176.734 11.2942C177.097 11.5981 177.309 11.9927 177.361 12.5526L178.357 12.46ZM177.377 10.528L178.032 9.77231C177.25 9.09489 176.262 8.8 175.165 8.8V9.8V10.8C175.898 10.8 176.384 10.9904 176.722 11.2837L177.377 10.528ZM175.165 9.8V8.8C174.043 8.8 173.031 9.08883 172.242 9.77231L172.897 10.528L173.552 11.2837C173.883 10.9965 174.383 10.8 175.165 10.8V9.8ZM172.897 10.528L172.242 9.77231C171.487 10.4263 171.038 11.2897 170.874 12.2993L171.861 12.46L172.848 12.6207C172.945 12.025 173.186 11.6004 173.552 11.2837L172.897 10.528ZM186.397 20.216L186.958 19.3881L186.958 19.3881L186.397 20.216ZM184.297 16.856L184.047 15.8879L183.16 16.1171L183.311 17.0204L184.297 16.856ZM187.545 16.016L188.526 15.8199L188.318 14.7831L187.295 15.0479L187.545 16.016ZM188.189 17.556L187.408 18.1807L187.418 18.1923L187.427 18.2036L188.189 17.556ZM189.337 18.368L188.986 19.3043L189.009 19.3129L189.032 19.3204L189.337 18.368ZM192.669 18.172L193.25 18.9857L193.263 18.9768L193.275 18.9674L192.669 18.172ZM192.697 16.1L192.152 16.9384L192.167 16.9482L192.183 16.9575L192.697 16.1ZM190.905 15.512L191.084 14.5281L191.081 14.5276L190.905 15.512ZM190.121 15.372L189.932 16.3541L189.945 16.3564L190.121 15.372ZM187.461 14.616L187.075 15.5384L187.084 15.5423L187.093 15.546L187.461 14.616ZM185.529 13.244L184.763 13.8866L184.763 13.8866L185.529 13.244ZM186.313 7.84L186.899 8.65074L186.908 8.64356L186.313 7.84ZM194.153 7.756L193.595 8.58572L193.595 8.58572L194.153 7.756ZM196.169 10.472L196.463 11.4278L197.398 11.1402L197.131 10.1994L196.169 10.472ZM192.893 11.48L191.915 11.686L192.14 12.7579L193.187 12.4358L192.893 11.48ZM191.969 9.968L191.414 10.8L191.422 10.8052L191.43 10.8103L191.969 9.968ZM188.749 9.884L189.283 10.7295L189.299 10.7197L189.314 10.7093L188.749 9.884ZM188.777 11.844L188.263 12.7015L188.279 12.7112L188.295 12.7202L188.777 11.844ZM190.289 12.32L190.465 11.3356L190.463 11.3352L190.289 12.32ZM193.901 13.216L193.548 14.1515L193.56 14.1561L193.573 14.1605L193.901 13.216ZM195.917 14.532L195.151 15.1746L195.162 15.188L195.174 15.201L195.917 14.532ZM195.077 20.216L195.677 21.016L195.679 21.0143L195.077 20.216ZM190.849 21.392V20.392C189.18 20.392 187.907 20.0311 186.958 19.3881L186.397 20.216L185.836 21.0439C187.202 21.9689 188.897 22.392 190.849 22.392V21.392ZM186.397 20.216L186.958 19.3881C186.041 18.767 185.484 17.8944 185.283 16.6916L184.297 16.856L183.311 17.0204C183.596 18.7296 184.438 20.097 185.836 21.0439L186.397 20.216ZM184.297 16.856L184.547 17.8241L187.795 16.9841L187.545 16.016L187.295 15.0479L184.047 15.8879L184.297 16.856ZM187.545 16.016L186.565 16.2121C186.715 16.964 186.978 17.6432 187.408 18.1807L188.189 17.556L188.97 16.9313C188.803 16.7221 188.637 16.3747 188.526 15.8199L187.545 16.016ZM188.189 17.556L187.427 18.2036C187.852 18.7033 188.375 19.0751 188.986 19.3043L189.337 18.368L189.688 17.4317C189.403 17.3249 189.161 17.1553 188.951 16.9084L188.189 17.556ZM189.337 18.368L189.032 19.3204C189.607 19.5044 190.215 19.592 190.849 19.592V18.592V17.592C190.4 17.592 190 17.5303 189.642 17.4156L189.337 18.368ZM190.849 18.592V19.592C191.747 19.592 192.606 19.4458 193.25 18.9857L192.669 18.172L192.088 17.3583C191.948 17.4582 191.594 17.592 190.849 17.592V18.592ZM192.669 18.172L193.275 18.9674C193.874 18.5114 194.257 17.8704 194.257 17.08H193.257H192.257C192.257 17.1483 192.249 17.2353 192.063 17.3766L192.669 18.172ZM193.257 17.08H194.257C194.257 16.2934 193.881 15.6441 193.212 15.2425L192.697 16.1L192.183 16.9575C192.215 16.9772 192.233 16.9924 192.241 17.0003C192.248 17.0076 192.25 17.0105 192.249 17.0091C192.248 17.0077 192.249 17.0091 192.251 17.017C192.253 17.0255 192.257 17.0453 192.257 17.08H193.257ZM192.697 16.1L193.242 15.2616C192.699 14.9083 191.942 14.6841 191.084 14.5281L190.905 15.512L190.726 16.4959C191.511 16.6386 191.949 16.8064 192.152 16.9384L192.697 16.1ZM190.905 15.512L191.081 14.5276L190.297 14.3876L190.121 15.372L189.945 16.3564L190.729 16.4964L190.905 15.512ZM190.121 15.372L190.31 14.39C189.392 14.2134 188.566 13.9775 187.829 13.686L187.461 14.616L187.093 15.546C187.962 15.8892 188.909 16.1572 189.932 16.354L190.121 15.372ZM187.461 14.616L187.847 13.6936C187.169 13.4098 186.663 13.0404 186.295 12.6014L185.529 13.244L184.763 13.8866C185.365 14.6049 186.148 15.1502 187.075 15.5384L187.461 14.616ZM185.529 13.244L186.295 12.6014C185.991 12.2387 185.801 11.7352 185.801 11.004H184.801H183.801C183.801 12.1021 184.096 13.0919 184.763 13.8866L185.529 13.244ZM184.801 11.004H185.801C185.801 9.90249 186.183 9.16774 186.899 8.65068L186.313 7.84L185.728 7.02932C184.428 7.96826 183.801 9.34284 183.801 11.004H184.801ZM186.313 7.84L186.908 8.64356C187.698 8.05892 188.795 7.72 190.289 7.72V6.72V5.72C188.498 5.72 186.945 6.12774 185.718 7.03644L186.313 7.84ZM190.289 6.72V7.72C191.69 7.72 192.771 8.03112 193.595 8.58572L194.153 7.756L194.711 6.92628C193.482 6.09954 191.987 5.72 190.289 5.72V6.72ZM194.153 7.756L193.595 8.58572C194.439 9.15332 194.958 9.86729 195.207 10.7446L196.169 10.472L197.131 10.1994C196.745 8.83671 195.921 7.74002 194.711 6.92628L194.153 7.756ZM196.169 10.472L195.875 9.51622L192.599 10.5242L192.893 11.48L193.187 12.4358L196.463 11.4278L196.169 10.472ZM192.893 11.48L193.872 11.274C193.685 10.3866 193.264 9.60963 192.508 9.12573L191.969 9.968L191.43 10.8103C191.607 10.9237 191.803 11.1547 191.915 11.686L192.893 11.48ZM191.969 9.968L192.524 9.13595C191.875 8.70339 191.109 8.52 190.289 8.52V9.52V10.52C190.813 10.52 191.167 10.6353 191.414 10.8L191.969 9.968ZM190.289 9.52V8.52C189.521 8.52 188.775 8.65461 188.184 9.05869L188.749 9.884L189.314 10.7093C189.433 10.6281 189.713 10.52 190.289 10.52V9.52ZM188.749 9.884L188.215 9.03851C187.578 9.44095 187.217 10.0734 187.217 10.836H188.217H189.217C189.217 10.8055 189.22 10.7887 189.222 10.7822C189.223 10.7763 189.224 10.7759 189.223 10.7778C189.222 10.7797 189.223 10.7773 189.23 10.7704C189.237 10.7631 189.253 10.7486 189.283 10.7295L188.749 9.884ZM188.217 10.836H187.217C187.217 11.6228 187.578 12.2904 188.263 12.7015L188.777 11.844L189.292 10.9865C189.261 10.9684 189.246 10.9547 189.239 10.9479C189.233 10.9416 189.231 10.9387 189.231 10.9384C189.231 10.9379 189.228 10.9329 189.225 10.9194C189.222 10.9052 189.217 10.8786 189.217 10.836H188.217ZM188.777 11.844L188.295 12.7202C188.8 12.9981 189.422 13.1825 190.115 13.3048L190.289 12.32L190.463 11.3352C189.887 11.2335 189.5 11.1005 189.259 10.9678L188.777 11.844ZM190.289 12.32L190.113 13.3044L190.897 13.4444L191.073 12.46L191.249 11.4756L190.465 11.3356L190.289 12.32ZM191.073 12.46L190.897 13.4444C191.893 13.6222 192.775 13.8594 193.548 14.1515L193.901 13.216L194.254 12.2805C193.348 11.9379 192.344 11.6712 191.249 11.4756L191.073 12.46ZM193.901 13.216L193.573 14.1605C194.296 14.412 194.803 14.76 195.151 15.1746L195.917 14.532L196.683 13.8894C196.06 13.1467 195.224 12.6173 194.23 12.2715L193.901 13.216ZM195.917 14.532L195.174 15.201C195.469 15.5293 195.673 16.0311 195.673 16.828H196.673H197.673C197.673 15.6836 197.373 14.6547 196.66 13.863L195.917 14.532ZM196.673 16.828H195.673C195.673 18.0037 195.263 18.8233 194.475 19.4177L195.077 20.216L195.679 21.0143C197.019 20.0034 197.673 18.5643 197.673 16.828H196.673ZM195.077 20.216L194.477 19.416C193.657 20.0309 192.482 20.392 190.849 20.392V21.392V22.392C192.763 22.392 194.406 21.9691 195.677 21.016L195.077 20.216ZM199.765 26.6H198.765V27.6H199.765V26.6ZM199.765 7.112V6.112H198.765V7.112H199.765ZM203.237 7.112H204.237V6.112H203.237V7.112ZM203.237 8.792H202.237V9.792H203.237V8.792ZM203.741 8.792V9.792H204.314L204.603 9.29772L203.741 8.792ZM205.225 7.364L205.746 8.21728L205.755 8.21207L205.763 8.2067L205.225 7.364ZM211.217 7.56L210.71 8.42193L210.716 8.42566L210.722 8.42929L211.217 7.56ZM213.513 9.968L214.391 9.49023L214.391 9.49023L213.513 9.968ZM213.513 18.144L214.391 18.6218L214.391 18.6218L213.513 18.144ZM211.217 20.58L211.711 21.4493L211.717 21.4457L211.724 21.4419L211.217 20.58ZM205.981 21.084L206.315 20.1416L206.306 20.1384L206.297 20.1353L205.981 21.084ZM204.609 20.356L203.922 21.083L203.943 21.1026L203.965 21.1209L204.609 20.356ZM203.797 19.404L204.636 18.8607L204.341 18.404H203.797V19.404ZM203.293 19.404V18.404H202.293V19.404H203.293ZM203.293 26.6V27.6H204.293V26.6H203.293ZM209.761 17.276L210.458 17.9925L210.459 17.9922L209.761 17.276ZM209.761 10.864L209.063 11.5803L209.072 11.5895L209.761 10.864ZM204.329 10.864L205.017 11.5895L205.027 11.5802L204.329 10.864ZM204.329 17.276L203.631 17.9923L203.64 18.0015L204.329 17.276ZM199.765 26.6H200.765V7.112H199.765H198.765V26.6H199.765ZM199.765 7.112V8.112H203.237V7.112V6.112H199.765V7.112ZM203.237 7.112H202.237V8.792H203.237H204.237V7.112H203.237ZM203.237 8.792V9.792H203.741V8.792V7.792H203.237V8.792ZM203.741 8.792L204.603 9.29772C204.819 8.93036 205.18 8.56349 205.746 8.21728L205.225 7.364L204.703 6.51072C203.926 6.98584 203.297 7.57097 202.878 8.28628L203.741 8.792ZM205.225 7.364L205.763 8.2067C206.207 7.923 206.949 7.72 208.109 7.72V6.72V5.72C206.767 5.72 205.586 5.94633 204.686 6.5213L205.225 7.364ZM208.109 6.72V7.72C209.053 7.72 209.914 7.95366 210.71 8.42193L211.217 7.56L211.724 6.69807C210.616 6.04634 209.404 5.72 208.109 5.72V6.72ZM211.217 7.56L210.722 8.42929C211.495 8.86889 212.135 9.52762 212.634 10.4458L213.513 9.968L214.391 9.49023C213.733 8.28038 212.842 7.33377 211.711 6.69071L211.217 7.56ZM213.513 9.968L212.634 10.4458C213.116 11.3311 213.381 12.4461 213.381 13.832H214.381H215.381C215.381 12.1939 215.067 10.7329 214.391 9.49023L213.513 9.968ZM214.381 13.832H213.381V14.28H214.381H215.381V13.832H214.381ZM214.381 14.28H213.381C213.381 15.6659 213.116 16.7809 212.634 17.6662L213.513 18.144L214.391 18.6218C215.067 17.3791 215.381 15.9181 215.381 14.28H214.381ZM213.513 18.144L212.634 17.6662C212.134 18.5867 211.49 19.2588 210.71 19.7181L211.217 20.58L211.724 21.4419C212.847 20.7812 213.734 19.8293 214.391 18.6218L213.513 18.144ZM211.217 20.58L210.722 19.7107C209.925 20.1644 209.059 20.392 208.109 20.392V21.392V22.392C209.398 22.392 210.605 22.0783 211.711 21.4493L211.217 20.58ZM208.109 21.392V20.392C207.344 20.392 206.755 20.2976 206.315 20.1416L205.981 21.084L205.646 22.0264C206.364 22.281 207.194 22.392 208.109 22.392V21.392ZM205.981 21.084L206.297 20.1353C205.825 19.9782 205.488 19.7894 205.253 19.5911L204.609 20.356L203.965 21.1209C204.438 21.5199 205.016 21.8165 205.664 22.0327L205.981 21.084ZM204.609 20.356L205.295 19.629C205.005 19.3549 204.79 19.098 204.636 18.8607L203.797 19.404L202.957 19.9473C203.214 20.3447 203.54 20.7224 203.922 21.083L204.609 20.356ZM203.797 19.404V18.404H203.293V19.404V20.404H203.797V19.404ZM203.293 19.404H202.293V26.6H203.293H204.293V19.404H203.293ZM203.293 26.6V25.6H199.765V26.6V27.6H203.293V26.6ZM207.045 18.312V19.312C208.375 19.312 209.541 18.8861 210.458 17.9925L209.761 17.276L209.063 16.5595C208.562 17.0473 207.917 17.312 207.045 17.312V18.312ZM209.761 17.276L210.459 17.9922C211.436 17.0397 211.853 15.7193 211.853 14.196H210.853H209.853C209.853 15.3607 209.541 16.0936 209.063 16.5598L209.761 17.276ZM210.853 14.196H211.853V13.916H210.853H209.853V14.196H210.853ZM210.853 13.916H211.853C211.853 12.3945 211.437 11.0757 210.449 10.1385L209.761 10.864L209.072 11.5895C209.541 12.0337 209.853 12.7495 209.853 13.916H210.853ZM209.761 10.864L210.459 10.1478C209.531 9.24381 208.369 8.8 207.045 8.8V9.8V10.8C207.885 10.8 208.535 11.0655 209.063 11.5802L209.761 10.864ZM207.045 9.8V8.8C205.72 8.8 204.559 9.24381 203.631 10.1478L204.329 10.864L205.027 11.5802C205.555 11.0655 206.204 10.8 207.045 10.8V9.8ZM204.329 10.864L203.64 10.1385C202.653 11.0757 202.237 12.3945 202.237 13.916H203.237H204.237C204.237 12.7495 204.549 12.0337 205.017 11.5895L204.329 10.864ZM203.237 13.916H202.237V14.196H203.237H204.237V13.916H203.237ZM203.237 14.196H202.237C202.237 15.7193 202.653 17.0397 203.631 17.9922L204.329 17.276L205.027 16.5598C204.548 16.0936 204.237 15.3607 204.237 14.196H203.237ZM204.329 17.276L203.64 18.0015C204.57 18.8831 205.728 19.312 207.045 19.312V18.312V17.312C206.196 17.312 205.544 17.0503 205.017 16.5505L204.329 17.276ZM220.28 20.524L219.784 21.3922L219.793 21.3975L219.802 21.4025L220.28 20.524ZM217.816 18.032L216.934 18.5034L216.939 18.5125L216.944 18.5215L217.816 18.032ZM217.816 10.108L218.695 10.5858L218.698 10.5794L217.816 10.108ZM220.252 7.616L220.737 8.49097L220.748 8.48424L220.252 7.616ZM227.448 7.644L226.927 8.49736L226.938 8.50429L227.448 7.644ZM229.8 10.164L228.912 10.6234L228.915 10.6297L229.8 10.164ZM230.64 15.092V16.092H231.64V15.092H230.64ZM220.532 15.092V14.092H219.492L219.533 15.1312L220.532 15.092ZM226.244 17.668L225.567 16.9321L226.244 17.668ZM227.308 16.24L227.772 15.3543L226.843 14.8671L226.401 15.8189L227.308 16.24ZM230.192 17.752L231.073 18.2261L231.552 17.3358L230.656 16.8663L230.192 17.752ZM229.044 19.348L228.29 18.6912L228.288 18.6931L229.044 19.348ZM227.084 20.804L227.515 21.7065L227.523 21.7025L227.531 21.6984L227.084 20.804ZM220.56 12.46L219.573 12.2993L219.384 13.46H220.56V12.46ZM227.056 12.46V13.46H228.153L228.052 12.3674L227.056 12.46ZM226.076 10.528L225.421 11.2837L225.427 11.289L225.434 11.2942L226.076 10.528ZM223.948 21.392V20.392C222.71 20.392 221.656 20.1338 220.758 19.6455L220.28 20.524L219.802 21.4025C221.033 22.0715 222.424 22.392 223.948 22.392V21.392ZM220.28 20.524L220.776 19.6558C219.89 19.1496 219.198 18.4508 218.688 17.5425L217.816 18.032L216.944 18.5215C217.629 19.7412 218.579 20.7038 219.784 21.3922L220.28 20.524ZM217.816 18.032L218.698 17.5606C218.21 16.6477 217.948 15.5461 217.948 14.224H216.948H215.948C215.948 15.8139 216.265 17.2509 216.934 18.5034L217.816 18.032ZM216.948 14.224H217.948V13.888H216.948H215.948V14.224H216.948ZM216.948 13.888H217.948C217.948 12.5653 218.21 11.4762 218.695 10.5858L217.816 10.108L216.938 9.63023C216.265 10.8678 215.948 12.2987 215.948 13.888H216.948ZM217.816 10.108L218.698 10.5794C219.189 9.66179 219.865 8.97352 220.736 8.49089L220.252 7.616L219.768 6.74111C218.549 7.41581 217.601 8.38887 216.934 9.63662L217.816 10.108ZM220.252 7.616L220.748 8.48424C221.621 7.98529 222.659 7.72 223.892 7.72V6.72V5.72C222.363 5.72 220.974 6.05204 219.756 6.74776L220.252 7.616ZM223.892 6.72V7.72C225.1 7.72 226.099 7.9912 226.927 8.49728L227.448 7.644L227.97 6.79072C226.782 6.0648 225.41 5.72 223.892 5.72V6.72ZM227.448 7.644L226.938 8.50429C227.778 9.00213 228.434 9.70015 228.912 10.6234L229.8 10.164L230.688 9.70458C230.046 8.46252 229.134 7.48054 227.958 6.78371L227.448 7.644ZM229.8 10.164L228.915 10.6297C229.387 11.5264 229.64 12.6025 229.64 13.888H230.64H231.64C231.64 12.3362 231.333 10.9296 230.685 9.69825L229.8 10.164ZM230.64 13.888H229.64V15.092H230.64H231.64V13.888H230.64ZM230.64 15.092V14.092H220.532V15.092V16.092H230.64V15.092ZM220.532 15.092L219.533 15.1312C219.58 16.3369 220.043 17.3737 220.932 18.1634L221.596 17.416L222.261 16.6686C221.805 16.2637 221.559 15.7511 221.531 15.0528L220.532 15.092ZM221.596 17.416L220.932 18.1634C221.802 18.937 222.866 19.312 224.06 19.312V18.312V17.312C223.313 17.312 222.734 17.0897 222.261 16.6686L221.596 17.416ZM224.06 18.312V19.312C225.165 19.312 226.19 19.0765 226.921 18.4039L226.244 17.668L225.567 16.9321C225.365 17.1182 224.934 17.312 224.06 17.312V18.312ZM226.244 17.668L226.921 18.4039C227.475 17.8947 227.912 17.3142 228.215 16.6611L227.308 16.24L226.401 15.8189C226.219 16.2111 225.947 16.5826 225.567 16.9321L226.244 17.668ZM227.308 16.24L226.844 17.1257L229.728 18.6377L230.192 17.752L230.656 16.8663L227.772 15.3543L227.308 16.24ZM230.192 17.752L229.312 17.2779C229.096 17.678 228.763 18.1485 228.29 18.6912L229.044 19.348L229.798 20.0048C230.334 19.3902 230.765 18.7967 231.073 18.2261L230.192 17.752ZM229.044 19.348L228.288 18.6931C227.907 19.1331 227.368 19.5441 226.637 19.9096L227.084 20.804L227.531 21.6984C228.443 21.2426 229.211 20.6829 229.8 20.0029L229.044 19.348ZM227.084 20.804L226.653 19.9015C226.009 20.2092 225.124 20.392 223.948 20.392V21.392V22.392C225.311 22.392 226.517 22.1828 227.515 21.7065L227.084 20.804ZM220.56 12.46V13.46H227.056V12.46V11.46H220.56V12.46ZM227.056 12.46L228.052 12.3674C227.955 11.322 227.514 10.4286 226.719 9.76181L226.076 10.528L225.434 11.2942C225.796 11.5981 226.008 11.9927 226.06 12.5526L227.056 12.46ZM226.076 10.528L226.731 9.77231C225.949 9.09489 224.961 8.8 223.864 8.8V9.8V10.8C224.597 10.8 225.083 10.9904 225.421 11.2837L226.076 10.528ZM223.864 9.8V8.8C222.742 8.8 221.73 9.08883 220.941 9.77231L221.596 10.528L222.251 11.2837C222.582 10.9965 223.083 10.8 223.864 10.8V9.8ZM221.596 10.528L220.941 9.77231C220.187 10.4263 219.738 11.2897 219.573 12.2993L220.56 12.46L221.547 12.6207C221.644 12.025 221.886 11.6004 222.251 11.2837L221.596 10.528ZM233.78 21H232.78V22H233.78V21ZM233.78 1.4V0.399999H232.78V1.4H233.78ZM237.308 1.4H238.308V0.399999H237.308V1.4ZM237.308 21V22H238.308V21H237.308ZM233.78 21H234.78V1.4H233.78H232.78V21H233.78ZM233.78 1.4V2.4H237.308V1.4V0.399999H233.78V1.4ZM237.308 1.4H236.308V21H237.308H238.308V1.4H237.308ZM237.308 21V20H233.78V21V22H237.308V21Z" fill="black" mask="url(#path-1-outside-1_77_921)"/>
</svg>
