<svg width="512" height="512" viewBox="0 0 512 512" fill="none" xmlns="http://www.w3.org/2000/svg">
<path d="M338.627 23.9239C332.528 25.1898 325.336 29.39 316.82 36.6974C311.584 41.1854 307.384 46.4213 302.781 53.9588C300.71 57.4111 298.696 60.3456 298.293 60.4606C297.89 60.6332 294.208 60.1154 290.123 59.3099C275.738 56.4905 268.891 55.8576 251.687 55.8576C234.253 55.8 234.023 55.8 214.92 59.5976C208.649 60.8058 203.298 61.8416 203.01 61.8416C202.78 61.8416 200.593 59.4249 198.292 56.4905C195.933 53.4985 192.078 49.3558 189.776 47.2844C183.332 41.4731 172.342 33.3602 167.106 30.6559L162.503 28.1817L154.103 28.0091C147.716 27.8365 144.781 28.0091 142.02 28.6996C132.526 31.1737 125.506 36.7549 121.421 45.2706C117.221 53.9588 114.401 67.8255 113.366 84.9719C112.56 98.2056 113.481 106.088 116.818 115.122L118.084 118.689L112.905 126.457C102.836 141.532 95.4712 158.621 92.3066 174.214C89.7174 187.102 89.2571 196.999 90.6955 212.074L91.0407 215.871L86.7829 219.208C84.4239 221.049 81.1442 223.178 79.4756 223.984C77.807 224.732 76.2534 225.768 76.0233 226.285C74.8725 229.335 82.3525 245.906 90.1777 257.759C101.628 274.963 113.653 287.103 125.621 293.49L129.131 295.389L124.701 297.46C118.429 300.337 109.223 303.329 104.102 304.135C101.628 304.537 97.4275 304.652 94.2629 304.48C82.9279 303.789 73.6642 300.222 62.2717 292.109C50.4764 283.766 42.9964 280.601 33.6177 280.084C26.7707 279.681 22.5704 280.601 16.1261 283.709C4.10065 289.635 -2.40116 303.214 0.820975 315.872C2.08681 320.936 5.88433 328.243 9.68185 332.961C19.2332 345.044 35.7466 355.631 54.6191 361.845C62.9621 364.55 75.7356 367.311 80.6839 367.426C82.295 367.484 84.4814 367.714 85.402 367.944L87.1282 368.347L85.6322 368.98C81.4319 370.706 71.6504 372.375 61.6388 373.123C52.893 373.756 48.9804 374.734 42.7663 377.726C21.8799 387.795 20.9018 417.37 41.0977 428.647C45.0103 430.833 52.9505 433.595 58.9345 434.746C65.1486 436.012 88.3365 435.839 95.7589 434.458C111.754 431.581 126.139 426.863 140.639 419.786C151.628 414.378 164.805 405.977 172.802 399.36C175.334 397.231 177.463 395.678 177.636 395.793C178.038 396.253 174.471 401.777 170.558 406.783C163.366 415.874 154.678 423.008 142.365 429.798C132.871 435.034 128.498 438.946 125.564 444.93C123.492 449.131 123.377 449.591 123.147 455.978C122.974 463.515 123.722 467.6 126.369 473.124C129.649 479.798 137.416 485.552 146.105 487.681C151.111 488.947 162.618 488.602 168.775 487.106C193.171 481.179 221.019 460.12 237.763 434.919C242.826 427.324 249.098 415.701 252.32 407.933C256.003 399.13 256.06 399.13 258.304 404.596C261.123 411.443 269.294 427.094 273.379 433.365C286.555 453.791 305.14 470.592 325.336 480.431C344.151 489.58 360.377 491.249 372.69 485.207C378.041 482.56 383.507 477.094 386.326 471.513L388.513 467.198L388.57 458.222V449.246L386.729 445.448C383.277 438.429 378.156 433.941 367.339 428.474C355.544 422.548 345.589 413.227 336.498 399.763C334.887 397.404 333.679 395.39 333.794 395.275C333.852 395.16 336.153 396.886 338.857 399.13C354.393 411.903 372.517 421.742 392.368 428.244C408.479 433.538 417.857 435.264 432.357 435.667C448.41 436.127 459.112 434.458 468.203 430.028C493.002 418.002 490.758 384.285 464.521 375.482C462.392 374.791 457.213 373.928 451.862 373.41C442.023 372.432 434.486 371.282 428.79 369.843C423.036 368.405 423.726 368.059 434.371 367.024C457.271 364.837 480.804 354.308 496.857 339.06C503.992 332.271 509.055 324.043 511.184 315.872C514.406 303.214 507.847 289.52 495.706 283.651C485.119 278.588 473.382 278.76 462.219 284.226C460.033 285.32 455.142 288.369 451.46 291.073C440.182 299.129 431.897 302.754 421.137 304.192C409.112 305.746 392.713 301.373 379.767 292.972L376.66 291.016L379.479 289.06C389.261 282.385 401.862 266.735 412.564 247.977C419.871 235.204 428.042 216.792 428.962 210.923L429.365 208.564H426.948C425.625 208.564 423.611 208.161 422.403 207.643C420.447 206.838 420.331 206.723 421.425 206.147C424.474 204.479 427.466 200.623 427.466 198.264C427.466 197.286 426.948 197.114 424.186 196.768C420.044 196.366 415.326 195.445 414.405 194.87C414.002 194.582 413.484 191.475 413.082 186.987C412.334 177.953 411.701 173.753 409.859 166.503C406.407 152.464 400.02 138.77 390.009 123.868L386.614 118.862L387.822 112.072C388.628 107.642 389.146 101.6 389.318 94.6383C389.606 84.7993 389.491 83.4759 388.11 76.8015C386.039 66.6172 382.184 53.3834 380.458 50.3339C378.156 46.3638 372.115 37.8481 368.547 33.5328C362.621 26.3981 357.327 23.9239 347.488 23.5787C344.151 23.4636 340.181 23.5787 338.627 23.9239ZM351.804 46.2487C359.744 50.6791 367.339 66.2144 369.698 82.5553C370.158 85.8925 370.849 89.9201 371.194 91.5887C371.942 95.2137 371.539 102.003 369.986 111.554L368.835 118.402L373.035 123.695C378.674 130.83 383.967 139.23 391.85 153.615C393.058 155.801 394.957 160.75 396.05 164.547C398.467 172.948 401.171 184.973 400.768 185.376C400.366 185.779 393.461 180.14 387.707 174.731C385.291 172.487 381.666 168.23 379.652 165.295C369.986 151.141 361.47 144.524 346.625 139.576C335.865 136.008 332.183 135.318 322.747 135.26C313.138 135.203 308.65 136.181 300.48 140.093C295.071 142.74 290.756 146.71 284.657 154.823C279.305 161.958 276.083 167.769 273.782 174.501C271.941 179.852 271.883 180.428 271.826 189.001C271.826 197.401 271.941 198.149 273.437 201.947C277.292 211.671 291.446 229.738 304.91 242.166C323.782 259.543 344.611 273.006 362.621 279.393C364.75 280.141 366.476 281.062 366.476 281.465C366.476 282.443 359.629 288.542 352.839 293.663C345.302 299.359 336.901 304.307 327.868 308.507C317.051 313.571 316.418 313.974 316.418 316.448C316.418 318.749 318.259 321.051 320.618 321.626C324.588 322.662 344.841 312.305 357.672 302.696L363.426 298.438L369.122 302.178C379.882 309.14 394.036 315.124 403.473 316.735C405.889 317.196 411.355 317.368 418.145 317.196C428.674 316.908 429.02 316.908 435.119 314.837C443.174 312.132 450.079 308.507 458.076 302.811C465.326 297.69 469.411 295.446 474.014 294.065C480.862 292.052 487.651 293.548 492.657 298.266C496.685 302.063 497.317 303.502 497.317 309.083C497.26 312.995 496.972 314.319 495.534 317.426C489.32 330.602 473.784 342.397 454.049 348.957C435.234 355.228 415.959 356.207 397.546 351.834C393.576 350.913 389.376 350.108 388.168 350.108C382.356 350.108 379.077 355.516 382.011 360.292C383.392 362.593 386.096 364.607 394.9 369.843C409.802 378.646 425.107 383.825 442.138 385.781C455.43 387.277 457.789 387.622 460.666 388.658C465.902 390.499 468.894 393.606 470.447 398.957C473.382 409.084 467.57 417.37 455.257 420.592C444.325 423.469 427.006 423.238 411.931 420.016C397.086 416.909 377.35 408.681 363.311 399.878C348.524 390.557 334.024 376.978 325.681 364.607C324.358 362.593 322.402 360.464 321.423 359.831C318.144 357.875 314.289 358.623 311.297 361.845C309.973 363.226 309.916 363.571 310.261 368.059C310.894 376.633 316.13 393.031 321.136 401.892C330.227 418.118 345.935 433.077 362.908 441.536C371.712 445.966 374.761 450.224 374.704 458.107C374.646 465.184 370.964 471.283 365.21 473.872C362.621 475.023 361.24 475.195 356.119 475.195C344.151 475.195 330.629 469.729 316.245 458.97C291.964 440.903 274.76 414.09 265.496 379.912C263.137 371.224 262.274 369.383 260.145 368.347C256.405 366.448 253.643 366.736 250.939 369.268C249.156 370.936 248.408 372.835 245.933 381.869C242.654 393.664 240.18 400.338 235.346 410.235C226.601 428.129 215.266 442.801 201.169 454.597C181.318 471.283 158.59 479.223 146.623 473.699C140.984 471.11 137.877 466.507 137.186 459.718C136.266 451.144 139.603 446.541 150.995 440.557C169.523 430.833 186.727 412.939 194.149 395.563C200.363 381.005 203.585 365.355 200.996 361.73C199.73 359.947 197.199 358.738 194.494 358.738C191.445 358.738 189.373 360.579 184.137 367.944C173.148 383.249 156.231 396.828 134.309 407.703C114.459 417.542 94.6081 422.548 75.4479 422.606C55.8274 422.606 44.3773 417.83 41.6155 408.451C39.9469 402.697 41.5004 396.138 45.413 392.225C49.2105 388.37 52.3751 387.507 66.9898 386.069C87.5885 384.055 100.189 379.912 118.141 369.21C122.226 366.794 126.829 363.629 128.325 362.133C130.972 359.716 131.145 359.371 131.145 356.782C131.145 354.308 130.915 353.732 129.073 352.064C126.484 349.59 124.068 349.532 115.955 351.488C106.806 353.79 100.707 354.308 87.3008 353.963C73.7218 353.617 70.4421 353.1 59.74 349.532C37.8755 342.282 20.6716 329.049 16.0686 315.987C14.5726 311.787 14.5726 305.803 16.011 302.639C17.2193 299.934 21.5922 295.734 24.5842 294.411C27.6913 293.087 36.1494 293.145 40.2346 294.526C41.9607 295.101 46.2186 297.575 49.7284 299.934C61.4086 307.875 62.3868 308.507 66.4144 310.521C76.3685 315.527 84.9992 317.541 96.6219 317.483C111.409 317.483 125.276 313.341 138.625 305.055C140.984 303.559 143.113 302.351 143.343 302.351C143.573 302.351 146.68 304.25 150.247 306.609C163.826 315.527 175.679 321.338 180.225 321.338C182.411 321.338 183.044 321.051 184.31 319.555C187.475 315.815 186.151 314.434 173.493 307.99C168.372 305.458 162.446 302.178 160.202 300.74C154.793 297.345 146.105 290.843 146.105 290.268C146.105 290.038 149.384 288.369 153.47 286.528C168.89 279.566 184.253 269.554 191.905 261.384C193.804 259.312 198.062 253.961 201.399 249.416C204.679 244.87 210.202 237.563 213.654 233.075C227.176 215.641 231.204 207.758 233.045 195.33C235.231 180.14 230.858 165.928 220.732 155.226C215.726 149.932 209.627 145.905 199.903 141.359C189.431 136.468 186.899 135.778 178.901 135.836C170.846 135.893 167.682 136.871 154.448 143.258C145.472 147.573 145.414 147.631 138.912 154.075C132.583 160.347 132.353 160.692 128.671 168.287C123.55 178.874 119.062 184.973 105.943 199.07L102.203 203.098L102.606 195.905C104.044 168.345 113.711 144.179 131.95 122.372C136.784 116.618 136.956 116.33 136.323 114.546C133.849 107.009 132.698 93.8327 133.446 81.2894C134.54 62.532 138.222 53.7862 146.795 49.4133C149.384 48.0899 150.305 47.9749 153.815 48.1475C162.733 48.7228 167.797 52.0025 183.274 67.1926L194.897 78.5851L200.939 76.5713C220.329 70.0695 239.719 67.6529 262.85 68.7461C276.774 69.4366 293 72.5436 306.003 77.0316C308.362 77.8371 310.376 78.5276 310.434 78.5276C310.491 78.5276 311.757 76.2836 313.253 73.5218C321.884 57.5837 331.55 47.1118 339.893 44.7527C343.691 43.717 348.294 44.2924 351.804 46.2487ZM187.244 159.369C198.464 162.246 207.44 170.876 210.26 181.578C211.813 187.39 210.95 195.79 208.246 201.084C206.577 204.363 201.341 209.715 197.659 211.958C191.848 215.411 187.417 216.734 180.052 217.022C172.169 217.367 168.199 216.734 163.194 214.26C150.132 207.931 142.883 193.892 146.392 181.751C149.384 171.164 159.166 162.188 170.674 159.426C175.161 158.333 183.102 158.333 187.244 159.369ZM336.096 159.138C341.447 160.232 347.948 163.799 351.976 167.827C360.377 176.227 362.621 187.217 358.133 198.379C355.083 206.032 347.258 212.879 338.685 215.583C332.873 217.425 321.251 217.425 316.13 215.526C299.962 209.657 291.734 193.661 297.085 178.644C300.249 170.013 309.916 161.67 319.467 159.311C323.265 158.391 332.068 158.333 336.096 159.138Z" fill="black"/>
<path d="M244.955 212.246C237.303 214.49 232.412 218.46 232.412 222.488C232.412 224.962 234.368 228.357 237.13 230.601C240.18 233.075 241.388 233.708 246.164 235.319C250.306 236.7 249.904 236.009 250.997 243.201L251.342 245.33L248.638 244.985C247.142 244.813 244.38 244.065 242.424 243.317C237.993 241.59 236.152 241.59 234.426 243.374C231.952 245.791 232.987 248.495 237.188 250.681C240.64 252.408 244.323 253.271 251.63 254.076C257.614 254.709 258.304 254.709 262.562 253.501C271.193 251.142 279.593 245.676 279.593 242.511C279.593 241.936 278.96 240.727 278.212 239.864C276.314 237.62 273.609 237.678 270.617 240.094C268.546 241.705 262.447 244.813 261.239 244.813C260.951 244.813 260.548 243.777 260.376 242.511C259.282 234.974 259.167 235.722 261.296 234.858C263.713 233.823 266.36 230.888 270.56 224.732C273.897 219.841 274.472 217.77 273.264 215.411C271.078 211.325 254.334 209.484 244.955 212.246Z" fill="black"/>
<path d="M171.594 169.956C167.624 171.797 161.87 176.688 160.547 179.392C159.338 181.924 158.188 187.735 158.188 191.533C158.188 194.697 160.259 197.862 164.919 201.89C170.213 206.493 172.917 207.644 178.326 207.644C184.482 207.586 188.74 205.63 193.401 200.566C198.464 195.043 198.637 194.525 198.407 187.045C198.119 178.99 196.796 175.825 192.71 173.696C183.85 169.035 176.542 167.712 171.594 169.956Z" fill="black"/>
<path d="M321.884 169.84C318.834 171.509 312.16 176.688 309.973 179.104C307.154 182.211 306.751 184.57 308.017 190.727C310.261 201.544 313.598 205.226 322.517 206.895C331.263 208.506 343.115 202.234 347.258 193.776C348.581 191.187 348.754 190.209 348.466 187.505C348.064 183.707 346.165 180.255 342.828 177.263C340.986 175.537 340.123 175.134 338.8 175.307C337.419 175.537 337.131 175.364 337.131 174.328C337.131 173.063 334.887 170.646 332.701 169.495C330.802 168.517 323.898 168.747 321.884 169.84Z" fill="black"/>
</svg>
