<svg width="72" height="72" viewBox="0 0 72 72" fill="none" xmlns="http://www.w3.org/2000/svg">
<path d="M29.4441 9.3744C32.6286 4.82079 39.3714 4.82079 42.5559 9.3744L50.0041 20.0248C50.5407 20.7921 51.2079 21.4593 51.9752 21.9959L62.6256 29.4441C67.1792 32.6286 67.1792 39.3714 62.6256 42.5559L51.9752 50.0041C51.2079 50.5407 50.5407 51.2079 50.0041 51.9752L42.5559 62.6256C39.3714 67.1792 32.6286 67.1792 29.4441 62.6256L21.9959 51.9752C21.4593 51.2079 20.7921 50.5407 20.0248 50.0041L9.3744 42.5559C4.82079 39.3714 4.82079 32.6286 9.3744 29.4441L20.0248 21.9959C20.7921 21.4593 21.4593 20.7921 21.9959 20.0248L29.4441 9.3744Z" fill="#FFC700"/>
</svg>
