<svg width="100" height="50" viewBox="0 0 100 50" fill="none" xmlns="http://www.w3.org/2000/svg">
<path d="M74.5 0.5C88.3165 0.5 99.5 11.4783 99.5 25C99.5 38.5217 88.3165 49.5 74.5 49.5C60.6835 49.5 49.5 38.5217 49.5 25C49.5 11.4783 60.6835 0.5 74.5 0.5Z" stroke="currentColor"/>
<circle cx="51" cy="25" r="25" fill="#5EF1A5"/>
<path d="M25.5 0.5C39.3165 0.5 50.5 11.4783 50.5 25C50.5 38.5217 39.3165 49.5 25.5 49.5C11.6835 49.5 0.5 38.5217 0.5 25C0.5 11.4783 11.6835 0.5 25.5 0.5Z" stroke="currentColor"/>
<line x1="0.980502" y1="24.7224" x2="76.6479" y2="24.3949" stroke="currentColor"/>
<path d="M77 2V49" stroke="currentColor"/>
</svg>
