<svg width="72" height="72" viewBox="0 0 72 72" fill="none" xmlns="http://www.w3.org/2000/svg">
<path d="M29.4441 9.3744C32.6286 4.82079 39.3714 4.82079 42.5559 9.3744L50.0041 20.0248C50.5407 20.7921 51.2079 21.4593 51.9752 21.9959L62.6256 29.4441C67.1792 32.6286 67.1792 39.3714 62.6256 42.5559L51.9752 50.0041C51.2079 50.5407 50.5407 51.2079 50.0041 51.9752L42.5559 62.6256C39.3714 67.1792 32.6286 67.1792 29.4441 62.6256L21.9959 51.9752C21.4593 51.2079 20.7921 50.5407 20.0248 50.0041L9.3744 42.5559C4.82079 39.3714 4.82079 32.6286 9.3744 29.4441L20.0248 21.9959C20.7921 21.4593 21.4593 20.7921 21.9959 20.0248L29.4441 9.3744Z" fill="#FFC700"/>
<path d="M44 31C43.9583 32.7083 43.4792 34.2292 42.5625 35.5625C42.3958 35.7708 42.2292 36.0208 42.0625 36.3125C41.9792 36.4375 41.8958 36.5625 41.8125 36.6875C40.9375 37.8125 40.1042 39.0417 39.3125 40.375C38.6875 41.5833 38.2917 42.7917 38.125 44H41.1875C41.3125 43.25 41.5625 42.5208 41.9375 41.8125C42.5625 40.7292 43.2708 39.6667 44.0625 38.625C44.3958 38.1667 44.7292 37.7083 45.0625 37.25C46.3125 35.4583 46.9583 33.375 47 31C46.9167 27.875 45.8333 25.2917 43.75 23.25C41.7083 21.1667 39.125 20.0833 36 20C32.875 20.0833 30.2917 21.1667 28.25 23.25C26.1667 25.2917 25.0833 27.875 25 31C25.0417 33.375 25.6875 35.4583 26.9375 37.25C27.2708 37.7083 27.6042 38.1458 27.9375 38.5625C27.9375 38.6042 27.9375 38.625 27.9375 38.625C28.7292 39.6667 29.4375 40.7292 30.0625 41.8125C30.4375 42.5208 30.6875 43.25 30.8125 44H33.875C33.7083 42.7917 33.3125 41.5833 32.6875 40.375C31.9375 39.0417 31.125 37.8125 30.25 36.6875C29.9583 36.2708 29.6875 35.8958 29.4375 35.5625C28.5208 34.2292 28.0417 32.7083 28 31C28.0417 28.75 28.8125 26.8542 30.3125 25.3125C31.8542 23.8125 33.75 23.0417 36 23C38.25 23.0417 40.1458 23.8125 41.6875 25.3125C43.1875 26.8542 43.9583 28.75 44 31ZM36 52C37.4167 51.9583 38.6042 51.4792 39.5625 50.5625C40.4792 49.6042 40.9583 48.4167 41 47V46H31V47C31.0417 48.4167 31.5208 49.6042 32.4375 50.5625C33.3958 51.4792 34.5833 51.9583 36 52ZM37 27C36.9583 26.375 36.625 26.0417 36 26C35.375 26.0417 35.0417 26.375 35 27V27.625C34.625 27.6667 34.25 27.7917 33.875 28C33 28.375 32.5417 29.1458 32.5 30.3125C32.6667 31.2708 33.125 31.9167 33.875 32.25C34.4583 32.5 35.0417 32.7083 35.625 32.875L35.75 32.9375C36.4167 33.1042 36.8958 33.2708 37.1875 33.4375C37.4375 33.6042 37.5417 33.7083 37.5 33.75C37.5 33.9167 37.4792 34.0208 37.4375 34.0625C37.3958 34.1042 37.3125 34.1667 37.1875 34.25C36.8542 34.4167 36.4792 34.5 36.0625 34.5C35.4792 34.4583 34.8542 34.3125 34.1875 34.0625C34.0625 34.0208 33.9375 33.9792 33.8125 33.9375C33.2292 33.8125 32.8125 34.0417 32.5625 34.625C32.4375 35.2083 32.6458 35.625 33.1875 35.875C33.2292 35.875 33.2708 35.875 33.3125 35.875C33.3542 35.9167 33.4167 35.9375 33.5 35.9375C33.5 35.9375 33.5208 35.9375 33.5625 35.9375C33.9792 36.1042 34.4583 36.25 35 36.375V37.0625C35.0417 37.6875 35.375 38.0208 36 38.0625C36.625 38.0208 36.9583 37.6875 37 37.0625V36.4375C37.4167 36.3542 37.7917 36.2292 38.125 36.0625C39 35.6458 39.4583 34.875 39.5 33.75C39.375 32.75 38.9583 32.0625 38.25 31.6875C37.5833 31.3542 36.9375 31.125 36.3125 31C35.6458 30.8333 35.1458 30.6667 34.8125 30.5C34.5625 30.3333 34.4583 30.2292 34.5 30.1875C34.5 30.0625 34.5208 29.9792 34.5625 29.9375C34.6042 29.8958 34.6875 29.8333 34.8125 29.75C35.1875 29.5833 35.5833 29.5 36 29.5C36.5 29.5 37.0417 29.5833 37.625 29.75C38.25 29.8333 38.6667 29.5833 38.875 29C38.9583 28.4167 38.7083 28.0208 38.125 27.8125C37.7917 27.7292 37.4167 27.6458 37 27.5625V27Z" fill="black"/>
</svg>
