<svg width="72" height="72" viewBox="0 0 72 72" fill="none" xmlns="http://www.w3.org/2000/svg">
<path d="M31.2945 5.16468C33.8194 2.39335 38.1806 2.39335 40.7055 5.16468C42.3805 7.00311 44.9728 7.6977 47.3426 6.94307C50.9149 5.8055 54.6918 7.98608 55.4928 11.6486C56.0241 14.0782 57.9218 15.9759 60.3514 16.5072C64.0139 17.3082 66.1945 21.0851 65.0569 24.6574C64.3023 27.0272 64.9969 29.6195 66.8353 31.2945C69.6067 33.8194 69.6067 38.1806 66.8353 40.7055C64.9969 42.3805 64.3023 44.9728 65.0569 47.3426C66.1945 50.9149 64.0139 54.6918 60.3514 55.4928C57.9218 56.0241 56.0241 57.9218 55.4928 60.3514C54.6918 64.0139 50.9149 66.1945 47.3426 65.0569C44.9728 64.3023 42.3805 64.9969 40.7055 66.8353C38.1806 69.6067 33.8194 69.6067 31.2945 66.8353C29.6195 64.9969 27.0272 64.3023 24.6574 65.0569C21.0851 66.1945 17.3082 64.0139 16.5072 60.3514C15.9759 57.9218 14.0782 56.0241 11.6486 55.4928C7.98608 54.6918 5.8055 50.9149 6.94307 47.3426C7.6977 44.9728 7.00311 42.3805 5.16468 40.7055C2.39335 38.1806 2.39335 33.8194 5.16468 31.2945C7.00311 29.6195 7.6977 27.0272 6.94307 24.6574C5.8055 21.0851 7.98608 17.3082 11.6486 16.5072C14.0782 15.9759 15.9759 14.0782 16.5072 11.6486C17.3082 7.98608 21.0851 5.8055 24.6574 6.94307C27.0272 7.6977 29.6195 7.00311 31.2945 5.16468Z" fill="#5EF1A5"/>
</svg>
