<svg width="72" height="72" viewBox="0 0 72 72" fill="none" xmlns="http://www.w3.org/2000/svg">
<path d="M28 4.6188C32.9504 1.76068 39.0496 1.76068 44 4.6188L59.1769 13.3812C64.1273 16.2393 67.1769 21.5214 67.1769 27.2376V44.7624C67.1769 50.4786 64.1273 55.7607 59.1769 58.6188L44 67.3812C39.0496 70.2393 32.9504 70.2393 28 67.3812L12.8231 58.6188C7.87267 55.7607 4.82309 50.4786 4.82309 44.7624V27.2376C4.82309 21.5214 7.87267 16.2393 12.8231 13.3812L28 4.6188Z" fill="#6F61FE"/>
<g clip-path="url(#clip0_81_49)">
<path d="M40.1875 20C39.5625 20 39.0417 20.2083 38.625 20.625C38.2083 21.0417 38 21.5625 38 22.1875C38 22.8125 38.2083 23.3333 38.625 23.75L40.375 25.5L36.5 29.375C35.9167 30 35.625 30.7083 35.625 31.5C35.625 32.2917 35.9167 33 36.5 33.625L38.375 35.5C39 36.0833 39.7083 36.375 40.5 36.375C41.2917 36.375 42 36.0833 42.625 35.5L46.5 31.625L48.25 33.375C48.6667 33.7917 49.1875 34 49.8125 34C50.4375 34 50.9583 33.7917 51.375 33.375C51.7917 32.9583 52 32.4375 52 31.8125V22.5C52 21.7917 51.75 21.2083 51.25 20.75C50.7917 20.25 50.2083 20 49.5 20H40.1875ZM43.5625 24.4375L42.125 23H49V29.875L47.5625 28.4375C46.8542 27.8542 46.1458 27.8542 45.4375 28.4375L40.5 33.375L38.625 31.5L43.5625 26.5625C44.1458 25.8542 44.1458 25.1458 43.5625 24.4375ZM31.8125 52C32.4375 52 32.9583 51.7917 33.375 51.375C33.7917 50.9583 34 50.4375 34 49.8125C34 49.1875 33.7917 48.6667 33.375 48.25L31.625 46.5L35.5 42.625C36.0833 42 36.375 41.2917 36.375 40.5C36.375 39.7083 36.0833 39 35.5 38.375L33.625 36.5C33 35.9167 32.2917 35.625 31.5 35.625C30.7083 35.625 30 35.9167 29.375 36.5L25.5 40.375L23.75 38.625C23.3333 38.2083 22.8125 38 22.1875 38C21.5625 38 21.0417 38.2083 20.625 38.625C20.2083 39.0417 20 39.5625 20 40.1875V49.5C20 50.2083 20.25 50.7917 20.75 51.25C21.2083 51.75 21.7917 52 22.5 52H31.8125ZM28.4375 47.5625L29.875 49H23V42.125L24.4375 43.5625C25.1458 44.1458 25.8542 44.1458 26.5625 43.5625L31.5 38.625L33.375 40.5L28.4375 45.4375C27.8542 46.1458 27.8542 46.8542 28.4375 47.5625Z" fill="black"/>
</g>
<defs>
<clipPath id="clip0_81_49">
<rect width="32" height="32" fill="white" transform="translate(20 20)"/>
</clipPath>
</defs>
</svg>
