<svg width="72" height="72" viewBox="0 0 72 72" fill="none" xmlns="http://www.w3.org/2000/svg">
<path d="M31.2945 5.16468C33.8194 2.39335 38.1806 2.39335 40.7055 5.16468C42.3805 7.00311 44.9728 7.6977 47.3426 6.94307C50.9149 5.8055 54.6918 7.98608 55.4928 11.6486C56.0241 14.0782 57.9218 15.9759 60.3514 16.5072C64.0139 17.3082 66.1945 21.0851 65.0569 24.6574C64.3023 27.0272 64.9969 29.6195 66.8353 31.2945C69.6067 33.8194 69.6067 38.1806 66.8353 40.7055C64.9969 42.3805 64.3023 44.9728 65.0569 47.3426C66.1945 50.9149 64.0139 54.6918 60.3514 55.4928C57.9218 56.0241 56.0241 57.9218 55.4928 60.3514C54.6918 64.0139 50.9149 66.1945 47.3426 65.0569C44.9728 64.3023 42.3805 64.9969 40.7055 66.8353C38.1806 69.6067 33.8194 69.6067 31.2945 66.8353C29.6195 64.9969 27.0272 64.3023 24.6574 65.0569C21.0851 66.1945 17.3082 64.0139 16.5072 60.3514C15.9759 57.9218 14.0782 56.0241 11.6486 55.4928C7.98608 54.6918 5.8055 50.9149 6.94307 47.3426C7.6977 44.9728 7.00311 42.3805 5.16468 40.7055C2.39335 38.1806 2.39335 33.8194 5.16468 31.2945C7.00311 29.6195 7.6977 27.0272 6.94307 24.6574C5.8055 21.0851 7.98608 17.3082 11.6486 16.5072C14.0782 15.9759 15.9759 14.0782 16.5072 11.6486C17.3082 7.98608 21.0851 5.8055 24.6574 6.94307C27.0272 7.6977 29.6195 7.00311 31.2945 5.16468Z" fill="#5EF1A5"/>
<path d="M24.8 34.6C24.2333 34.6 23.7167 34.7333 23.25 35C23.4833 33.1333 24.0667 31.5833 25 30.35C26.1 28.9167 27.3667 28.2 28.8 28.2C30.2333 28.2 31.5 28.9167 32.6 30.35C33.7333 31.85 34.3333 33.8 34.4 36.2C34.3333 38.6 33.7333 40.55 32.6 42.05C31.5 43.4833 30.2333 44.2 28.8 44.2C27.3667 44.2 26.1 43.4833 25 42.05C24.7333 41.7167 24.5 41.35 24.3 40.95C24.4667 40.9833 24.6333 41 24.8 41C25.7 40.9667 26.45 40.65 27.05 40.05C27.65 39.45 27.9667 38.7 28 37.8C27.9667 36.9 27.65 36.15 27.05 35.55C26.45 34.95 25.7 34.6333 24.8 34.6ZM36 29.75C35.7667 29.2833 35.4833 28.85 35.15 28.45C34.3833 27.4167 33.4667 26.5833 32.4 25.95C31.3 25.3167 30.1 25 28.8 25C27.5 25 26.3 25.3167 25.2 25.95C24.1333 26.5833 23.2167 27.4167 22.45 28.45C20.85 30.5833 20.0333 33.1667 20 36.2C20.0333 39.2333 20.85 41.8167 22.45 43.95C23.2167 44.9833 24.1333 45.8167 25.2 46.45C26.3 47.0833 27.5 47.4 28.8 47.4C30.1 47.4 31.3 47.0833 32.4 46.45C33.4667 45.8167 34.3833 44.9833 35.15 43.95C35.45 43.55 35.7333 43.1167 36 42.65C36.2333 43.1167 36.5167 43.55 36.85 43.95C37.6167 44.9833 38.5333 45.8167 39.6 46.45C40.7 47.0833 41.9 47.4 43.2 47.4C44.5 47.4 45.7 47.0833 46.8 46.45C47.8667 45.8167 48.7833 44.9833 49.55 43.95C51.15 41.8167 51.9667 39.2333 52 36.2C51.9667 33.1667 51.15 30.5833 49.55 28.45C48.7833 27.4167 47.8667 26.5833 46.8 25.95C45.7 25.3167 44.5 25 43.2 25C41.9 25 40.7 25.3167 39.6 25.95C38.5333 26.5833 37.6167 27.4167 36.85 28.45C36.55 28.85 36.2667 29.2833 36 29.75ZM38.7 40.95C38.8667 40.9833 39.0333 41 39.2 41C40.1 40.9667 40.85 40.65 41.45 40.05C42.05 39.45 42.3667 38.7 42.4 37.8C42.3667 36.9 42.05 36.15 41.45 35.55C40.85 34.95 40.1 34.6333 39.2 34.6C38.6333 34.6 38.1167 34.7333 37.65 35C37.8833 33.1333 38.4667 31.5833 39.4 30.35C40.5 28.9167 41.7667 28.2 43.2 28.2C44.6333 28.2 45.9 28.9167 47 30.35C48.1333 31.85 48.7333 33.8 48.8 36.2C48.7333 38.6 48.1333 40.55 47 42.05C45.9 43.4833 44.6333 44.2 43.2 44.2C41.7667 44.2 40.5 43.4833 39.4 42.05C39.1333 41.7167 38.9 41.35 38.7 40.95Z" fill="black"/>
</svg>
